0
SECTION
2
HEADER
9
$INSUNITS
70
1
9
$ACADVER
1
AC1014
9
$HANDSEED
5
FFFF
0
ENDSEC
0
SECTION
2
TABLES
0
TABLE
2
VPORT
5
8
100
AcDbSymbolTable
0
ENDTAB
0
TABLE
2
LTYPE
5
5
100
AcDbSymbolTable
0
LTYPE
5
14
100
AcDbSymbolTableRecord
100
AcDbLinetypeTableRecord
2
BYBLOCK
70
0
0
LTYPE
5
15
100
AcDbSymbolTableRecord
100
AcDbLinetypeTableRecord
2
BYLAYER
70
0
0
ENDTAB
0
TABLE
2
LAYER
5
2
100
AcDbSymbolTable
70
2
0
LAYER
5
50
100
AcDbSymbolTableRecord
100
AcDbLayerTableRecord
2
0
70
0
6
CONTINUOUS
0
ENDTAB
0
TABLE
2
STYLE
5
3
100
AcDbSymbolTable
70
1
0
STYLE
5
11
100
AcDbSymbolTableRecord
100
AcDbTextStyleTableRecord
2
STANDARD
70
0
0
ENDTAB
0
TABLE
2
VIEW
5
6
100
AcDbSymbolTable
70
0
0
ENDTAB
0
TABLE
2
UCS
5
7
100
AcDbSymbolTable
70
0
0
ENDTAB
0
TABLE
2
APPID
5
9
100
AcDbSymbolTable
70
2
0
APPID
5
12
100
AcDbSymbolTableRecord
100
AcDbRegAppTableRecord
2
ACAD
70
0
0
ENDTAB
0
TABLE
2
DIMSTYLE
5
A
100
AcDbSymbolTable
70
1
0
ENDTAB
0
TABLE
2
BLOCK_RECORD
5
1
100
AcDbSymbolTable
70
1
0
BLOCK_RECORD
5
1F
100
AcDbSymbolTableRecord
100
AcDbBlockTableRecord
2
*MODEL_SPACE
0
BLOCK_RECORD
5
1B
100
AcDbSymbolTableRecord
100
AcDbBlockTableRecord
2
*PAPER_SPACE
0
ENDTAB
0
ENDSEC
0
SECTION
2
BLOCKS
0
BLOCK
5
20
100
AcDbEntity
100
AcDbBlockBegin
2
*MODEL_SPACE
0
ENDBLK
5
21
100
AcDbEntity
100
AcDbBlockEnd
0
BLOCK
5
1C
100
AcDbEntity
100
AcDbBlockBegin
2
*PAPER_SPACE
0
ENDBLK
5
1D
100
AcDbEntity
100
AcDbBlockEnd
0
ENDSEC
0
SECTION
2
ENTITIES
0
LINE
5
100
100
AcDbEntity
8
0
100
AcDbLine
10
1.0959645669291322
20
-3.9507874015748041
30
0
11
1.2499999999999984
21
-3.9507874015748041
31
0
0
LINE
5
101
100
AcDbEntity
8
0
100
AcDbLine
10
1.2499999999999984
20
-3.9507874015748041
30
0
11
1.2499999999999987
21
-3.4285714285714297
31
0
0
LINE
5
102
100
AcDbEntity
8
0
100
AcDbLine
10
1.2499999999999987
20
-3.4285714285714297
30
0
11
1.3749999999999984
21
-3.4285714285714297
31
0
0
LINE
5
103
100
AcDbEntity
8
0
100
AcDbLine
10
1.3749999999999984
20
-3.4285714285714297
30
0
11
1.3749999999999984
21
-2.2857142857142869
31
0
0
LINE
5
104
100
AcDbEntity
8
0
100
AcDbLine
10
1.3749999999999984
20
-2.2857142857142869
30
0
11
1.2499999999999987
21
-2.2857142857142869
31
0
0
LINE
5
105
100
AcDbEntity
8
0
100
AcDbLine
10
1.2499999999999987
20
-2.2857142857142869
30
0
11
1.2499999999999984
21
-1.7634983127109127
31
0
0
LINE
5
106
100
AcDbEntity
8
0
100
AcDbLine
10
1.2499999999999984
20
-1.7634983127109127
30
0
11
1.0959645669291322
21
-1.7634983127109127
31
0
0
LINE
5
107
100
AcDbEntity
8
0
100
AcDbLine
10
1.0959645669291322
20
-1.7634983127109127
30
0
11
1.0959645669291322
21
-1.8127109111361095
31
0
0
LINE
5
108
100
AcDbEntity
8
0
100
AcDbLine
10
1.0959645669291322
20
-1.8127109111361095
30
0
11
1.0172244094488174
21
-1.8127109111361095
31
0
0
LINE
5
109
100
AcDbEntity
8
0
100
AcDbLine
10
1.0172244094488174
20
-1.8127109111361095
30
0
11
1.0172244094488174
21
-1.7634983127109127
31
0
0
LINE
5
110
100
AcDbEntity
8
0
100
AcDbLine
10
1.0172244094488174
20
-1.7634983127109127
30
0
11
0.86318897637795122
21
-1.7634983127109127
31
0
0
LINE
5
111
100
AcDbEntity
8
0
100
AcDbLine
10
0.86318897637795122
20
-1.7634983127109127
30
0
11
0.86318897637795122
21
-1.665073115860519
31
0
0
LINE
5
112
100
AcDbEntity
8
0
100
AcDbLine
10
0.86318897637795122
20
-1.665073115860519
30
0
11
1.0172244094488174
21
-1.665073115860519
31
0
0
LINE
5
113
100
AcDbEntity
8
0
100
AcDbLine
10
1.0172244094488174
20
-1.665073115860519
30
0
11
1.0172244094488174
21
-1.6158605174353222
31
0
0
LINE
5
114
100
AcDbEntity
8
0
100
AcDbLine
10
1.0172244094488174
20
-1.6158605174353222
30
0
11
1.0959645669291322
21
-1.6158605174353222
31
0
0
LINE
5
115
100
AcDbEntity
8
0
100
AcDbLine
10
1.0959645669291322
20
-1.6158605174353222
30
0
11
1.0959645669291322
21
-1.665073115860519
31
0
0
LINE
5
116
100
AcDbEntity
8
0
100
AcDbLine
10
1.0959645669291322
20
-1.665073115860519
30
0
11
1.2499999999999984
21
-1.665073115860519
31
0
0
LINE
5
117
100
AcDbEntity
8
0
100
AcDbLine
10
1.2499999999999984
20
-1.665073115860519
30
0
11
1.2499999999999987
21
-1.1428571428571446
31
0
0
LINE
5
118
100
AcDbEntity
8
0
100
AcDbLine
10
1.2499999999999987
20
-1.1428571428571446
30
0
11
1.3749999999999984
21
-1.1428571428571446
31
0
0
LINE
5
119
100
AcDbEntity
8
0
100
AcDbLine
10
1.3749999999999984
20
-1.1428571428571446
30
0
11
1.3749999999999984
21
-1.3987061727561026e-15
31
0
0
LINE
5
120
100
AcDbEntity
8
0
100
AcDbLine
10
1.3749999999999984
20
-1.3987061727561026e-15
30
0
11
0.67421259842519554
21
-9.288283178458493e-16
31
0
0
LINE
5
121
100
AcDbEntity
8
0
100
AcDbLine
10
0.67421259842519554
20
-9.288283178458493e-16
30
0
11
0.67421259842519554
21
-0.15403543307086709
31
0
0
LINE
5
122
100
AcDbEntity
8
0
100
AcDbLine
10
0.67421259842519554
20
-0.15403543307086709
30
0
11
0.72342519685039242
21
-0.15403543307086709
31
0
0
LINE
5
123
100
AcDbEntity
8
0
100
AcDbLine
10
0.72342519685039242
20
-0.15403543307086709
30
0
11
0.72342519685039242
21
-0.23277559055118202
31
0
0
LINE
5
124
100
AcDbEntity
8
0
100
AcDbLine
10
0.72342519685039242
20
-0.23277559055118202
30
0
11
0.67421259842519554
21
-0.23277559055118202
31
0
0
LINE
5
125
100
AcDbEntity
8
0
100
AcDbLine
10
0.67421259842519554
20
-0.23277559055118202
30
0
11
0.67421259842519554
21
-0.38681102362204817
31
0
0
LINE
5
126
100
AcDbEntity
8
0
100
AcDbLine
10
0.67421259842519554
20
-0.38681102362204817
30
0
11
0.57578740157480179
21
-0.38681102362204817
31
0
0
LINE
5
127
100
AcDbEntity
8
0
100
AcDbLine
10
0.57578740157480179
20
-0.38681102362204817
30
0
11
0.57578740157480179
21
-0.23277559055118202
31
0
0
LINE
5
128
100
AcDbEntity
8
0
100
AcDbLine
10
0.57578740157480179
20
-0.23277559055118202
30
0
11
0.52657480314960503
21
-0.23277559055118202
31
0
0
LINE
5
129
100
AcDbEntity
8
0
100
AcDbLine
10
0.52657480314960503
20
-0.23277559055118202
30
0
11
0.52657480314960503
21
-0.15403543307086709
31
0
0
LINE
5
130
100
AcDbEntity
8
0
100
AcDbLine
10
0.52657480314960503
20
-0.15403543307086709
30
0
11
0.57578740157480179
21
-0.15403543307086709
31
0
0
LINE
5
131
100
AcDbEntity
8
0
100
AcDbLine
10
0.57578740157480179
20
-0.15403543307086709
30
0
11
0.57578740157480179
21
-3.9338611108765388e-16
31
0
0
LINE
5
132
100
AcDbEntity
8
0
100
AcDbLine
10
0.57578740157480179
20
-3.9338611108765388e-16
30
0
11
-0.125000000000001
21
-3.4967654318902565e-16
31
0
0
LINE
5
133
100
AcDbEntity
8
0
100
AcDbLine
10
-0.125000000000001
20
-3.4967654318902565e-16
30
0
11
-0.125000000000001
21
0.1249999999999996
31
0
0
LINE
5
134
100
AcDbEntity
8
0
100
AcDbLine
10
-0.125000000000001
20
0.1249999999999996
30
0
11
-1.6250000000000004
21
0.1249999999999996
31
0
0
LINE
5
135
100
AcDbEntity
8
0
100
AcDbLine
10
-1.6250000000000004
20
0.1249999999999996
30
0
11
-1.6250000000000004
21
-3.4967654318902565e-16
31
0
0
LINE
5
136
100
AcDbEntity
8
0
100
AcDbLine
10
-1.6250000000000004
20
-3.4967654318902565e-16
30
0
11
-2.3257874015748032
21
-3.9338611108765388e-16
31
0
0
LINE
5
137
100
AcDbEntity
8
0
100
AcDbLine
10
-2.3257874015748032
20
-3.9338611108765388e-16
30
0
11
-2.3257874015748032
21
-0.15403543307086598
31
0
0
LINE
5
138
100
AcDbEntity
8
0
100
AcDbLine
10
-2.3257874015748032
20
-0.15403543307086598
30
0
11
-2.2765748031496065
21
-0.15403543307086598
31
0
0
LINE
5
139
100
AcDbEntity
8
0
100
AcDbLine
10
-2.2765748031496065
20
-0.15403543307086598
30
0
11
-2.2765748031496065
21
-0.23277559055118094
31
0
0
LINE
5
140
100
AcDbEntity
8
0
100
AcDbLine
10
-2.2765748031496065
20
-0.23277559055118094
30
0
11
-2.3257874015748032
21
-0.23277559055118094
31
0
0
LINE
5
141
100
AcDbEntity
8
0
100
AcDbLine
10
-2.4734251968503935
20
-0.23277559055118094
30
0
11
-2.4734251968503935
21
-0.15403543307086598
31
0
0
LINE
5
142
100
AcDbEntity
8
0
100
AcDbLine
10
-2.4734251968503935
20
-0.15403543307086598
30
0
11
-2.4242125984251968
21
-0.15403543307086598
31
0
0
LINE
5
143
100
AcDbEntity
8
0
100
AcDbLine
10
-2.4242125984251968
20
-0.15403543307086598
30
0
11
-2.4242125984251968
21
-3.9338611108765388e-16
31
0
0
LINE
5
144
100
AcDbEntity
8
0
100
AcDbLine
10
-2.4242125984251968
20
-3.9338611108765388e-16
30
0
11
-3.1249999999999996
21
-3.4967654318902565e-16
31
0
0
LINE
5
145
100
AcDbEntity
8
0
100
AcDbLine
10
-3.1249999999999996
20
-3.4967654318902565e-16
30
0
11
-3.1249999999999996
21
0.1249999999999996
31
0
0
LINE
5
146
100
AcDbEntity
8
0
100
AcDbLine
10
-3.1249999999999996
20
0.1249999999999996
30
0
11
-4.6249999999999982
21
0.1249999999999996
31
0
0
LINE
5
147
100
AcDbEntity
8
0
100
AcDbLine
10
-4.6249999999999982
20
0.1249999999999996
30
0
11
-4.6249999999999982
21
-3.4967654318902565e-16
31
0
0
LINE
5
148
100
AcDbEntity
8
0
100
AcDbLine
10
-4.6249999999999982
20
-3.4967654318902565e-16
30
0
11
-5.3257874015748019
21
-3.9338611108765388e-16
31
0
0
LINE
5
149
100
AcDbEntity
8
0
100
AcDbLine
10
-5.3257874015748019
20
-3.9338611108765388e-16
30
0
11
-5.3257874015748019
21
-0.15403543307086651
31
0
0
LINE
5
150
100
AcDbEntity
8
0
100
AcDbLine
10
-5.3257874015748019
20
-0.15403543307086651
30
0
11
-5.2765748031496047
21
-0.15403543307086651
31
0
0
LINE
5
151
100
AcDbEntity
8
0
100
AcDbLine
10
-5.2765748031496047
20
-0.15403543307086651
30
0
11
-5.2765748031496047
21
-0.23277559055118147
31
0
0
LINE
5
152
100
AcDbEntity
8
0
100
AcDbLine
10
-5.2765748031496047
20
-0.23277559055118147
30
0
11
-5.3257874015748019
21
-0.23277559055118147
31
0
0
LINE
5
153
100
AcDbEntity
8
0
100
AcDbLine
10
-5.3257874015748019
20
-0.23277559055118147
30
0
11
-5.3257874015748019
21
-0.38681102362204756
31
0
0
LINE
5
154
100
AcDbEntity
8
0
100
AcDbLine
10
-5.3257874015748019
20
-0.38681102362204756
30
0
11
-5.4242125984251954
21
-0.38681102362204756
31
0
0
LINE
5
155
100
AcDbEntity
8
0
100
AcDbLine
10
-5.4242125984251954
20
-0.38681102362204756
30
0
11
-5.4242125984251954
21
-0.23277559055118147
31
0
0
LINE
5
156
100
AcDbEntity
8
0
100
AcDbLine
10
-5.4242125984251954
20
-0.23277559055118147
30
0
11
-5.4734251968503926
21
-0.23277559055118147
31
0
0
LINE
5
157
100
AcDbEntity
8
0
100
AcDbLine
10
-5.4734251968503926
20
-0.23277559055118147
30
0
11
-5.4734251968503926
21
-0.15403543307086651
31
0
0
LINE
5
158
100
AcDbEntity
8
0
100
AcDbLine
10
-5.4734251968503926
20
-0.15403543307086651
30
0
11
-5.4242125984251954
21
-0.15403543307086651
31
0
0
LINE
5
159
100
AcDbEntity
8
0
100
AcDbLine
10
-5.4242125984251954
20
-0.15403543307086651
30
0
11
-5.4242125984251954
21
-3.9338611108765388e-16
31
0
0
LINE
5
160
100
AcDbEntity
8
0
100
AcDbLine
10
-5.4242125984251954
20
-3.9338611108765388e-16
30
0
11
-6.1249999999999991
21
-3.4967654318902565e-16
31
0
0
LINE
5
161
100
AcDbEntity
8
0
100
AcDbLine
10
-6.1249999999999991
20
-3.4967654318902565e-16
30
0
11
-6.1249999999999991
21
0.1249999999999996
31
0
0
LINE
5
162
100
AcDbEntity
8
0
100
AcDbLine
10
-6.1249999999999991
20
0.1249999999999996
30
0
11
-7.6249999999999964
21
0.1249999999999996
31
0
0
LINE
5
163
100
AcDbEntity
8
0
100
AcDbLine
10
-7.6249999999999964
20
0.1249999999999996
30
0
11
-7.6249999999999964
21
-3.4967654318902565e-16
31
0
0
LINE
5
164
100
AcDbEntity
8
0
100
AcDbLine
10
-7.6249999999999964
20
-3.4967654318902565e-16
30
0
11
-8.3257874015748001
21
-3.9338611108765388e-16
31
0
0
LINE
5
165
100
AcDbEntity
8
0
100
AcDbLine
10
-8.3257874015748001
20
-3.9338611108765388e-16
30
0
11
-8.3257874015748001
21
-0.15403543307086656
31
0
0
LINE
5
166
100
AcDbEntity
8
0
100
AcDbLine
10
-8.3257874015748001
20
-0.15403543307086656
30
0
11
-8.2765748031496038
21
-0.15403543307086656
31
0
0
LINE
5
167
100
AcDbEntity
8
0
100
AcDbLine
10
-8.2765748031496038
20
-0.15403543307086656
30
0
11
-8.2765748031496038
21
-0.23277559055118147
31
0
0
LINE
5
168
100
AcDbEntity
8
0
100
AcDbLine
10
-8.2765748031496038
20
-0.23277559055118147
30
0
11
-8.3257874015748001
21
-0.23277559055118147
31
0
0
LINE
5
169
100
AcDbEntity
8
0
100
AcDbLine
10
-8.3257874015748001
20
-0.23277559055118147
30
0
11
-8.3257874015748001
21
-0.38681102362204761
31
0
0
LINE
5
170
100
AcDbEntity
8
0
100
AcDbLine
10
-8.3257874015748001
20
-0.38681102362204761
30
0
11
-8.4242125984251945
21
-0.38681102362204761
31
0
0
LINE
5
171
100
AcDbEntity
8
0
100
AcDbLine
10
-8.4242125984251945
20
-0.38681102362204761
30
0
11
-8.4242125984251945
21
-0.23277559055118147
31
0
0
LINE
5
172
100
AcDbEntity
8
0
100
AcDbLine
10
-8.4242125984251945
20
-0.23277559055118147
30
0
11
-8.4734251968503909
21
-0.23277559055118147
31
0
0
LINE
5
173
100
AcDbEntity
8
0
100
AcDbLine
10
-8.4734251968503909
20
-0.23277559055118147
30
0
11
-8.4734251968503909
21
-0.15403543307086656
31
0
0
LINE
5
174
100
AcDbEntity
8
0
100
AcDbLine
10
-8.4734251968503909
20
-0.15403543307086656
30
0
11
-8.4242125984251945
21
-0.15403543307086656
31
0
0
LINE
5
175
100
AcDbEntity
8
0
100
AcDbLine
10
-8.4242125984251945
20
-0.15403543307086656
30
0
11
-8.4242125984251945
21
-3.9338611108765388e-16
31
0
0
LINE
5
176
100
AcDbEntity
8
0
100
AcDbLine
10
-8.4242125984251945
20
-3.9338611108765388e-16
30
0
11
-9.1249999999999964
21
-3.4967654318902565e-16
31
0
0
LINE
5
177
100
AcDbEntity
8
0
100
AcDbLine
10
-9.1249999999999964
20
-3.4967654318902565e-16
30
0
11
-9.1249999999999964
21
0.1249999999999996
31
0
0
LINE
5
178
100
AcDbEntity
8
0
100
AcDbLine
10
-9.1249999999999964
20
0.1249999999999996
30
0
11
-10.624999999999998
21
0.1249999999999996
31
0
0
LINE
5
179
100
AcDbEntity
8
0
100
AcDbLine
10
-10.624999999999998
20
0.1249999999999996
30
0
11
-10.624999999999995
21
-0.41507311586051776
31
0
0
LINE
5
180
100
AcDbEntity
8
0
100
AcDbLine
10
-10.624999999999995
20
-0.41507311586051776
30
0
11
-10.47096456692913
21
-0.41507311586051776
31
0
0
LINE
5
181
100
AcDbEntity
8
0
100
AcDbLine
10
-10.47096456692913
20
-0.41507311586051776
30
0
11
-10.47096456692913
21
-0.36586051743532089
31
0
0
LINE
5
182
100
AcDbEntity
8
0
100
AcDbLine
10
-10.47096456692913
20
-0.36586051743532089
30
0
11
-10.392224409448817
21
-0.36586051743532089
31
0
0
LINE
5
183
100
AcDbEntity
8
0
100
AcDbLine
10
-10.392224409448817
20
-0.36586051743532089
30
0
11
-10.392224409448817
21
-0.41507311586051776
31
0
0
LINE
5
184
100
AcDbEntity
8
0
100
AcDbLine
10
-10.392224409448817
20
-0.41507311586051776
30
0
11
-10.238188976377947
21
-0.41507311586051776
31
0
0
LINE
5
185
100
AcDbEntity
8
0
100
AcDbLine
10
-10.238188976377947
20
-0.41507311586051776
30
0
11
-10.238188976377947
21
-0.5134983127109114
31
0
0
LINE
5
186
100
AcDbEntity
8
0
100
AcDbLine
10
-10.238188976377947
20
-0.5134983127109114
30
0
11
-10.392224409448817
21
-0.5134983127109114
31
0
0
LINE
5
187
100
AcDbEntity
8
0
100
AcDbLine
10
-10.392224409448817
20
-0.5134983127109114
30
0
11
-10.392224409448817
21
-0.56271091113610827
31
0
0
LINE
5
188
100
AcDbEntity
8
0
100
AcDbLine
10
-10.392224409448817
20
-0.56271091113610827
30
0
11
-10.47096456692913
21
-0.56271091113610827
31
0
0
LINE
5
189
100
AcDbEntity
8
0
100
AcDbLine
10
-10.47096456692913
20
-0.56271091113610827
30
0
11
-10.47096456692913
21
-0.5134983127109114
31
0
0
LINE
5
190
100
AcDbEntity
8
0
100
AcDbLine
10
-10.47096456692913
20
-0.5134983127109114
30
0
11
-10.624999999999998
21
-0.5134983127109114
31
0
0
LINE
5
191
100
AcDbEntity
8
0
100
AcDbLine
10
-10.624999999999998
20
-0.5134983127109114
30
0
11
-10.624999999999995
21
-1.0535714285714288
31
0
0
LINE
5
192
100
AcDbEntity
8
0
100
AcDbLine
10
-10.624999999999995
20
-1.0535714285714288
30
0
11
-10.749999999999996
21
-1.0535714285714288
31
0
0
LINE
5
193
100
AcDbEntity
8
0
100
AcDbLine
10
-10.749999999999996
20
-1.0535714285714288
30
0
11
-10.749999999999996
21
-2.2321428571428572
31
0
0
LINE
5
194
100
AcDbEntity
8
0
100
AcDbLine
10
-10.749999999999996
20
-2.2321428571428572
30
0
11
-10.624999999999995
21
-2.2321428571428572
31
0
0
LINE
5
195
100
AcDbEntity
8
0
100
AcDbLine
10
-10.624999999999995
20
-2.2321428571428572
30
0
11
-10.624999999999995
21
-2.7722159730033744
31
0
0
LINE
5
196
100
AcDbEntity
8
0
100
AcDbLine
10
-10.624999999999995
20
-2.7722159730033744
30
0
11
-10.47096456692913
21
-2.7722159730033744
31
0
0
LINE
5
197
100
AcDbEntity
8
0
100
AcDbLine
10
-10.47096456692913
20
-2.7722159730033744
30
0
11
-10.47096456692913
21
-2.7230033745781776
31
0
0
LINE
5
198
100
AcDbEntity
8
0
100
AcDbLine
10
-10.47096456692913
20
-2.7230033745781776
30
0
11
-10.392224409448817
21
-2.7230033745781776
31
0
0
LINE
5
199
100
AcDbEntity
8
0
100
AcDbLine
10
-10.392224409448817
20
-2.7230033745781776
30
0
11
-10.392224409448817
21
-2.7722159730033744
31
0
0
LINE
5
200
100
AcDbEntity
8
0
100
AcDbLine
10
-10.392224409448817
20
-2.7722159730033744
30
0
11
-10.238188976377947
21
-2.7722159730033744
31
0
0
LINE
5
201
100
AcDbEntity
8
0
100
AcDbLine
10
-10.238188976377947
20
-2.7722159730033744
30
0
11
-10.238188976377947
21
-2.8706411698537684
31
0
0
LINE
5
202
100
AcDbEntity
8
0
100
AcDbLine
10
-10.238188976377947
20
-2.8706411698537684
30
0
11
-10.392224409448817
21
-2.8706411698537684
31
0
0
LINE
5
203
100
AcDbEntity
8
0
100
AcDbLine
10
-10.392224409448817
20
-2.8706411698537684
30
0
11
-10.392224409448817
21
-2.9198537682789651
31
0
0
LINE
5
204
100
AcDbEntity
8
0
100
AcDbLine
10
-10.392224409448817
20
-2.9198537682789651
30
0
11
-10.47096456692913
21
-2.9198537682789651
31
0
0
LINE
5
205
100
AcDbEntity
8
0
100
AcDbLine
10
-10.47096456692913
20
-2.9198537682789651
30
0
11
-10.47096456692913
21
-2.8706411698537684
31
0
0
LINE
5
206
100
AcDbEntity
8
0
100
AcDbLine
10
-10.47096456692913
20
-2.8706411698537684
30
0
11
-10.624999999999998
21
-2.8706411698537684
31
0
0
LINE
5
207
100
AcDbEntity
8
0
100
AcDbLine
10
-10.624999999999998
20
-2.8706411698537684
30
0
11
-10.624999999999995
21
-3.4107142857142856
31
0
0
LINE
5
208
100
AcDbEntity
8
0
100
AcDbLine
10
-10.624999999999995
20
-3.4107142857142856
30
0
11
-10.749999999999996
21
-3.4107142857142856
31
0
0
LINE
5
209
100
AcDbEntity
8
0
100
AcDbLine
10
-10.749999999999996
20
-3.4107142857142856
30
0
11
-10.749999999999996
21
-4.5892857142857135
31
0
0
LINE
5
210
100
AcDbEntity
8
0
100
AcDbLine
10
-10.749999999999996
20
-4.5892857142857135
30
0
11
-10.624999999999995
21
-4.5892857142857135
31
0
0
LINE
5
211
100
AcDbEntity
8
0
100
AcDbLine
10
-10.624999999999995
20
-4.5892857142857135
30
0
11
-10.624999999999995
21
-5.1293588301462316
31
0
0
LINE
5
212
100
AcDbEntity
8
0
100
AcDbLine
10
-10.624999999999995
20
-5.1293588301462316
30
0
11
-10.47096456692913
21
-5.1293588301462316
31
0
0
LINE
5
213
100
AcDbEntity
8
0
100
AcDbLine
10
-10.47096456692913
20
-5.1293588301462316
30
0
11
-10.47096456692913
21
-5.0801462317210344
31
0
0
LINE
5
214
100
AcDbEntity
8
0
100
AcDbLine
10
-10.47096456692913
20
-5.0801462317210344
30
0
11
-10.392224409448817
21
-5.0801462317210344
31
0
0
LINE
5
215
100
AcDbEntity
8
0
100
AcDbLine
10
-10.392224409448817
20
-5.0801462317210344
30
0
11
-10.392224409448817
21
-5.1293588301462316
31
0
0
LINE
5
216
100
AcDbEntity
8
0
100
AcDbLine
10
-10.392224409448817
20
-5.1293588301462316
30
0
11
-10.238188976377947
21
-5.1293588301462316
31
0
0
LINE
5
217
100
AcDbEntity
8
0
100
AcDbLine
10
-10.238188976377947
20
-5.1293588301462316
30
0
11
-10.238188976377947
21
-5.2277840269966251
31
0
0
LINE
5
218
100
AcDbEntity
8
0
100
AcDbLine
10
-10.238188976377947
20
-5.2277840269966251
30
0
11
-10.392224409448817
21
-5.2277840269966251
31
0
0
LINE
5
219
100
AcDbEntity
8
0
100
AcDbLine
10
-10.392224409448817
20
-5.2277840269966251
30
0
11
-10.392224409448817
21
-5.2769966254218215
31
0
0
LINE
5
220
100
AcDbEntity
8
0
100
AcDbLine
10
-10.392224409448817
20
-5.2769966254218215
30
0
11
-10.47096456692913
21
-5.2769966254218215
31
0
0
LINE
5
221
100
AcDbEntity
8
0
100
AcDbLine
10
-10.47096456692913
20
-5.2769966254218215
30
0
11
-10.47096456692913
21
-5.2277840269966251
31
0
0
LINE
5
222
100
AcDbEntity
8
0
100
AcDbLine
10
-10.47096456692913
20
-5.2277840269966251
30
0
11
-10.624999999999998
21
-5.2277840269966251
31
0
0
LINE
5
223
100
AcDbEntity
8
0
100
AcDbLine
10
-10.624999999999998
20
-5.2277840269966251
30
0
11
-10.624999999999995
21
-5.7678571428571423
31
0
0
LINE
5
224
100
AcDbEntity
8
0
100
AcDbLine
10
-10.624999999999995
20
-5.7678571428571423
30
0
11
-10.749999999999996
21
-5.7678571428571423
31
0
0
LINE
5
225
100
AcDbEntity
8
0
100
AcDbLine
10
-10.749999999999996
20
-5.7678571428571423
30
0
11
-10.749999999999996
21
-6.9464285714285703
31
0
0
LINE
5
226
100
AcDbEntity
8
0
100
AcDbLine
10
-10.749999999999996
20
-6.9464285714285703
30
0
11
-10.624999999999995
21
-6.9464285714285703
31
0
0
LINE
5
227
100
AcDbEntity
8
0
100
AcDbLine
10
-10.624999999999995
20
-6.9464285714285703
30
0
11
-10.624999999999995
21
-7.4865016872890884
31
0
0
LINE
5
228
100
AcDbEntity
8
0
100
AcDbLine
10
-10.624999999999995
20
-7.4865016872890884
30
0
11
-10.47096456692913
21
-7.4865016872890884
31
0
0
LINE
5
229
100
AcDbEntity
8
0
100
AcDbLine
10
-10.47096456692913
20
-7.4865016872890884
30
0
11
-10.47096456692913
21
-7.4372890888638912
31
0
0
LINE
5
230
100
AcDbEntity
8
0
100
AcDbLine
10
-10.47096456692913
20
-7.4372890888638912
30
0
11
-10.392224409448817
21
-7.4372890888638912
31
0
0
LINE
5
231
100
AcDbEntity
8
0
100
AcDbLine
10
-10.392224409448817
20
-7.4372890888638912
30
0
11
-10.392224409448817
21
-7.4865016872890884
31
0
0
LINE
5
232
100
AcDbEntity
8
0
100
AcDbLine
10
-10.392224409448817
20
-7.4865016872890884
30
0
11
-10.238188976377947
21
-7.4865016872890884
31
0
0
LINE
5
233
100
AcDbEntity
8
0
100
AcDbLine
10
-10.238188976377947
20
-7.4865016872890884
30
0
11
-10.238188976377947
21
-7.5849268841394819
31
0
0
LINE
5
234
100
AcDbEntity
8
0
100
AcDbLine
10
-10.238188976377947
20
-7.5849268841394819
30
0
11
-10.392224409448817
21
-7.5849268841394819
31
0
0
LINE
5
235
100
AcDbEntity
8
0
100
AcDbLine
10
-10.392224409448817
20
-7.5849268841394819
30
0
11
-10.392224409448817
21
-7.6341394825646782
31
0
0
LINE
5
236
100
AcDbEntity
8
0
100
AcDbLine
10
-10.392224409448817
20
-7.6341394825646782
30
0
11
-10.47096456692913
21
-7.6341394825646782
31
0
0
LINE
5
237
100
AcDbEntity
8
0
100
AcDbLine
10
-10.47096456692913
20
-7.6341394825646782
30
0
11
-10.47096456692913
21
-7.5849268841394819
31
0
0
LINE
5
238
100
AcDbEntity
8
0
100
AcDbLine
10
-10.47096456692913
20
-7.5849268841394819
30
0
11
-10.624999999999995
21
-7.5849268841394819
31
0
0
LINE
5
239
100
AcDbEntity
8
0
100
AcDbLine
10
-10.624999999999995
20
-7.5849268841394819
30
0
11
-10.624999999999998
21
-8.1249999999999982
31
0
0
LINE
5
240
100
AcDbEntity
8
0
100
AcDbLine
10
-10.624999999999998
20
-8.1249999999999982
30
0
11
-9.1249999999999964
21
-8.1249999999999982
31
0
0
LINE
5
241
100
AcDbEntity
8
0
100
AcDbLine
10
-9.1249999999999964
20
-8.1249999999999982
30
0
11
-9.1249999999999964
21
-7.9999999999999991
31
0
0
LINE
5
242
100
AcDbEntity
8
0
100
AcDbLine
10
-9.1249999999999964
20
-7.9999999999999991
30
0
11
-8.4242125984251945
21
-7.9999999999999991
31
0
0
LINE
5
243
100
AcDbEntity
8
0
100
AcDbLine
10
-8.4242125984251945
20
-7.9999999999999991
30
0
11
-8.4242125984251945
21
-7.8459645669291334
31
0
0
LINE
5
244
100
AcDbEntity
8
0
100
AcDbLine
10
-8.4242125984251945
20
-7.8459645669291334
30
0
11
-8.4734251968503909
21
-7.8459645669291334
31
0
0
LINE
5
245
100
AcDbEntity
8
0
100
AcDbLine
10
-8.4734251968503909
20
-7.8459645669291334
30
0
11
-8.4734251968503909
21
-7.7672244094488176
31
0
0
LINE
5
246
100
AcDbEntity
8
0
100
AcDbLine
10
-8.4734251968503909
20
-7.7672244094488176
30
0
11
-8.4242125984251945
21
-7.7672244094488176
31
0
0
LINE
5
247
100
AcDbEntity
8
0
100
AcDbLine
10
-8.4242125984251945
20
-7.7672244094488176
30
0
11
-8.4242125984251945
21
-7.6131889763779519
31
0
0
LINE
5
248
100
AcDbEntity
8
0
100
AcDbLine
10
-8.4242125984251945
20
-7.6131889763779519
30
0
11
-8.3257874015748001
21
-7.6131889763779519
31
0
0
LINE
5
249
100
AcDbEntity
8
0
100
AcDbLine
10
-8.3257874015748001
20
-7.6131889763779519
30
0
11
-8.3257874015748001
21
-7.7672244094488176
31
0
0
LINE
5
250
100
AcDbEntity
8
0
100
AcDbLine
10
-8.3257874015748001
20
-7.7672244094488176
30
0
11
-8.2765748031496038
21
-7.7672244094488176
31
0
0
LINE
5
251
100
AcDbEntity
8
0
100
AcDbLine
10
-8.2765748031496038
20
-7.7672244094488176
30
0
11
-8.2765748031496038
21
-7.8459645669291334
31
0
0
LINE
5
252
100
AcDbEntity
8
0
100
AcDbLine
10
-8.2765748031496038
20
-7.8459645669291334
30
0
11
-8.3257874015748001
21
-7.8459645669291334
31
0
0
LINE
5
253
100
AcDbEntity
8
0
100
AcDbLine
10
-8.3257874015748001
20
-7.8459645669291334
30
0
11
-8.3257874015748001
21
-7.9999999999999991
31
0
0
LINE
5
254
100
AcDbEntity
8
0
100
AcDbLine
10
-8.3257874015748001
20
-7.9999999999999991
30
0
11
-7.6249999999999964
21
-7.9999999999999991
31
0
0
LINE
5
255
100
AcDbEntity
8
0
100
AcDbLine
10
-7.6249999999999964
20
-7.9999999999999991
30
0
11
-7.6249999999999964
21
-8.1249999999999982
31
0
0
LINE
5
256
100
AcDbEntity
8
0
100
AcDbLine
10
-7.6249999999999964
20
-8.1249999999999982
30
0
11
-6.1249999999999991
21
-8.1249999999999982
31
0
0
LINE
5
257
100
AcDbEntity
8
0
100
AcDbLine
10
-6.1249999999999991
20
-8.1249999999999982
30
0
11
-6.1249999999999991
21
-7.9999999999999991
31
0
0
LINE
5
258
100
AcDbEntity
8
0
100
AcDbLine
10
-6.1249999999999991
20
-7.9999999999999991
30
0
11
-5.4242125984251954
21
-7.9999999999999991
31
0
0
LINE
5
259
100
AcDbEntity
8
0
100
AcDbLine
10
-5.4242125984251954
20
-7.9999999999999991
30
0
11
-5.4242125984251954
21
-7.8459645669291334
31
0
0
LINE
5
260
100
AcDbEntity
8
0
100
AcDbLine
10
-5.4242125984251954
20
-7.8459645669291334
30
0
11
-5.4734251968503926
21
-7.8459645669291334
31
0
0
LINE
5
261
100
AcDbEntity
8
0
100
AcDbLine
10
-5.4734251968503926
20
-7.8459645669291334
30
0
11
-5.4734251968503926
21
-7.7672244094488176
31
0
0
LINE
5
262
100
AcDbEntity
8
0
100
AcDbLine
10
-5.4734251968503926
20
-7.7672244094488176
30
0
11
-5.4242125984251954
21
-7.7672244094488176
31
0
0
LINE
5
263
100
AcDbEntity
8
0
100
AcDbLine
10
-5.4242125984251954
20
-7.7672244094488176
30
0
11
-5.4242125984251954
21
-7.6131889763779519
31
0
0
LINE
5
264
100
AcDbEntity
8
0
100
AcDbLine
10
-5.4242125984251954
20
-7.6131889763779519
30
0
11
-5.3257874015748019
21
-7.6131889763779519
31
0
0
LINE
5
265
100
AcDbEntity
8
0
100
AcDbLine
10
-5.3257874015748019
20
-7.6131889763779519
30
0
11
-5.3257874015748019
21
-7.7672244094488176
31
0
0
LINE
5
266
100
AcDbEntity
8
0
100
AcDbLine
10
-5.3257874015748019
20
-7.7672244094488176
30
0
11
-5.2765748031496047
21
-7.7672244094488176
31
0
0
LINE
5
267
100
AcDbEntity
8
0
100
AcDbLine
10
-5.2765748031496047
20
-7.7672244094488176
30
0
11
-5.2765748031496047
21
-7.8459645669291334
31
0
0
LINE
5
268
100
AcDbEntity
8
0
100
AcDbLine
10
-5.2765748031496047
20
-7.8459645669291334
30
0
11
-5.3257874015748019
21
-7.8459645669291334
31
0
0
LINE
5
269
100
AcDbEntity
8
0
100
AcDbLine
10
-5.3257874015748019
20
-7.8459645669291334
30
0
11
-5.3257874015748019
21
-7.9999999999999991
31
0
0
LINE
5
270
100
AcDbEntity
8
0
100
AcDbLine
10
-5.3257874015748019
20
-7.9999999999999991
30
0
11
-4.6249999999999982
21
-7.9999999999999991
31
0
0
LINE
5
271
100
AcDbEntity
8
0
100
AcDbLine
10
-4.6249999999999982
20
-7.9999999999999991
30
0
11
-4.6249999999999982
21
-8.1249999999999982
31
0
0
LINE
5
272
100
AcDbEntity
8
0
100
AcDbLine
10
-4.6249999999999982
20
-8.1249999999999982
30
0
11
-3.1249999999999996
21
-8.1249999999999982
31
0
0
LINE
5
273
100
AcDbEntity
8
0
100
AcDbLine
10
-3.1249999999999996
20
-8.1249999999999982
30
0
11
-3.1249999999999996
21
-7.9999999999999991
31
0
0
LINE
5
274
100
AcDbEntity
8
0
100
AcDbLine
10
-3.1249999999999996
20
-7.9999999999999991
30
0
11
-2.4242125984251968
21
-7.9999999999999991
31
0
0
LINE
5
275
100
AcDbEntity
8
0
100
AcDbLine
10
-2.4242125984251968
20
-7.9999999999999991
30
0
11
-2.4242125984251968
21
-7.8459645669291334
31
0
0
LINE
5
276
100
AcDbEntity
8
0
100
AcDbLine
10
-2.4242125984251968
20
-7.8459645669291334
30
0
11
-2.4734251968503935
21
-7.8459645669291334
31
0
0
LINE
5
277
100
AcDbEntity
8
0
100
AcDbLine
10
-2.4734251968503935
20
-7.8459645669291334
30
0
11
-2.4734251968503935
21
-7.7672244094488176
31
0
0
LINE
5
278
100
AcDbEntity
8
0
100
AcDbLine
10
-2.4734251968503935
20
-7.7672244094488176
30
0
11
-2.4242125984251968
21
-7.7672244094488176
31
0
0
LINE
5
279
100
AcDbEntity
8
0
100
AcDbLine
10
-2.4242125984251968
20
-7.7672244094488176
30
0
11
-2.4242125984251968
21
-7.6131889763779519
31
0
0
LINE
5
280
100
AcDbEntity
8
0
100
AcDbLine
10
-2.4242125984251968
20
-7.6131889763779519
30
0
11
-2.3257874015748032
21
-7.6131889763779519
31
0
0
LINE
5
281
100
AcDbEntity
8
0
100
AcDbLine
10
-2.3257874015748032
20
-7.6131889763779519
30
0
11
-2.3257874015748032
21
-7.7672244094488176
31
0
0
LINE
5
282
100
AcDbEntity
8
0
100
AcDbLine
10
-2.3257874015748032
20
-7.7672244094488176
30
0
11
-2.2765748031496065
21
-7.7672244094488176
31
0
0
LINE
5
283
100
AcDbEntity
8
0
100
AcDbLine
10
-2.2765748031496065
20
-7.7672244094488176
30
0
11
-2.2765748031496065
21
-7.8459645669291334
31
0
0
LINE
5
284
100
AcDbEntity
8
0
100
AcDbLine
10
-2.2765748031496065
20
-7.8459645669291334
30
0
11
-2.3257874015748032
21
-7.8459645669291334
31
0
0
LINE
5
285
100
AcDbEntity
8
0
100
AcDbLine
10
-2.3257874015748032
20
-7.8459645669291334
30
0
11
-2.3257874015748032
21
-7.9999999999999991
31
0
0
LINE
5
286
100
AcDbEntity
8
0
100
AcDbLine
10
-2.3257874015748032
20
-7.9999999999999991
30
0
11
-1.6250000000000004
21
-7.9999999999999991
31
0
0
LINE
5
287
100
AcDbEntity
8
0
100
AcDbLine
10
-1.6250000000000004
20
-7.9999999999999991
30
0
11
-1.6250000000000004
21
-8.1249999999999982
31
0
0
LINE
5
288
100
AcDbEntity
8
0
100
AcDbLine
10
-1.6250000000000004
20
-8.1249999999999982
30
0
11
-0.125000000000001
21
-8.1249999999999982
31
0
0
LINE
5
289
100
AcDbEntity
8
0
100
AcDbLine
10
-0.125000000000001
20
-8.1249999999999982
30
0
11
-0.125000000000001
21
-7.9999999999999991
31
0
0
LINE
5
290
100
AcDbEntity
8
0
100
AcDbLine
10
-0.125000000000001
20
-7.9999999999999991
30
0
11
0.57578740157480179
21
-7.9999999999999991
31
0
0
LINE
5
291
100
AcDbEntity
8
0
100
AcDbLine
10
0.57578740157480179
20
-7.9999999999999991
30
0
11
0.57578740157480179
21
-7.8459645669291334
31
0
0
LINE
5
292
100
AcDbEntity
8
0
100
AcDbLine
10
0.57578740157480179
20
-7.8459645669291334
30
0
11
0.52657480314960503
21
-7.8459645669291334
31
0
0
LINE
5
293
100
AcDbEntity
8
0
100
AcDbLine
10
0.52657480314960503
20
-7.8459645669291334
30
0
11
0.52657480314960503
21
-7.7672244094488176
31
0
0
LINE
5
294
100
AcDbEntity
8
0
100
AcDbLine
10
0.52657480314960503
20
-7.7672244094488176
30
0
11
0.57578740157480179
21
-7.7672244094488176
31
0
0
LINE
5
295
100
AcDbEntity
8
0
100
AcDbLine
10
0.57578740157480179
20
-7.7672244094488176
30
0
11
0.57578740157480179
21
-7.6131889763779519
31
0
0
LINE
5
296
100
AcDbEntity
8
0
100
AcDbLine
10
0.57578740157480179
20
-7.6131889763779519
30
0
11
0.67421259842519554
21
-7.6131889763779519
31
0
0
LINE
5
297
100
AcDbEntity
8
0
100
AcDbLine
10
0.67421259842519554
20
-7.6131889763779519
30
0
11
0.67421259842519554
21
-7.7672244094488176
31
0
0
LINE
5
298
100
AcDbEntity
8
0
100
AcDbLine
10
0.67421259842519554
20
-7.7672244094488176
30
0
11
0.72342519685039242
21
-7.7672244094488176
31
0
0
LINE
5
299
100
AcDbEntity
8
0
100
AcDbLine
10
0.72342519685039242
20
-7.7672244094488176
30
0
11
0.72342519685039242
21
-7.8459645669291334
31
0
0
LINE
5
300
100
AcDbEntity
8
0
100
AcDbLine
10
0.72342519685039242
20
-7.8459645669291334
30
0
11
0.67421259842519554
21
-7.8459645669291334
31
0
0
LINE
5
301
100
AcDbEntity
8
0
100
AcDbLine
10
0.67421259842519554
20
-7.8459645669291334
30
0
11
0.67421259842519554
21
-7.9999999999999991
31
0
0
LINE
5
302
100
AcDbEntity
8
0
100
AcDbLine
10
0.67421259842519554
20
-7.9999999999999991
30
0
11
1.3749999999999984
21
-7.9999999999999991
31
0
0
LINE
5
303
100
AcDbEntity
8
0
100
AcDbLine
10
1.3749999999999984
20
-7.9999999999999991
30
0
11
1.3749999999999984
21
-6.8571428571428559
31
0
0
LINE
5
304
100
AcDbEntity
8
0
100
AcDbLine
10
1.3749999999999984
20
-6.8571428571428559
30
0
11
1.2499999999999987
21
-6.8571428571428559
31
0
0
LINE
5
305
100
AcDbEntity
8
0
100
AcDbLine
10
1.2499999999999987
20
-6.8571428571428559
30
0
11
1.2499999999999984
21
-6.3349268841394819
31
0
0
LINE
5
306
100
AcDbEntity
8
0
100
AcDbLine
10
1.2499999999999984
20
-6.3349268841394819
30
0
11
1.0959645669291322
21
-6.3349268841394819
31
0
0
LINE
5
307
100
AcDbEntity
8
0
100
AcDbLine
10
1.0959645669291322
20
-6.3349268841394819
30
0
11
1.0959645669291322
21
-6.3841394825646782
31
0
0
LINE
5
308
100
AcDbEntity
8
0
100
AcDbLine
10
1.0959645669291322
20
-6.3841394825646782
30
0
11
1.0172244094488174
21
-6.3841394825646782
31
0
0
LINE
5
309
100
AcDbEntity
8
0
100
AcDbLine
10
1.0172244094488174
20
-6.3841394825646782
30
0
11
1.0172244094488174
21
-6.3349268841394819
31
0
0
LINE
5
310
100
AcDbEntity
8
0
100
AcDbLine
10
1.0172244094488174
20
-6.3349268841394819
30
0
11
0.86318897637795122
21
-6.3349268841394819
31
0
0
LINE
5
311
100
AcDbEntity
8
0
100
AcDbLine
10
0.86318897637795122
20
-6.3349268841394819
30
0
11
0.86318897637795122
21
-6.2365016872890893
31
0
0
LINE
5
312
100
AcDbEntity
8
0
100
AcDbLine
10
0.86318897637795122
20
-6.2365016872890893
30
0
11
1.0172244094488174
21
-6.2365016872890893
31
0
0
LINE
5
313
100
AcDbEntity
8
0
100
AcDbLine
10
1.0172244094488174
20
-6.2365016872890893
30
0
11
1.0172244094488174
21
-6.1872890888638921
31
0
0
LINE
5
314
100
AcDbEntity
8
0
100
AcDbLine
10
1.0172244094488174
20
-6.1872890888638921
30
0
11
1.0959645669291322
21
-6.1872890888638921
31
0
0
LINE
5
315
100
AcDbEntity
8
0
100
AcDbLine
10
1.0959645669291322
20
-6.1872890888638921
30
0
11
1.0959645669291322
21
-6.2365016872890893
31
0
0
LINE
5
316
100
AcDbEntity
8
0
100
AcDbLine
10
1.0959645669291322
20
-6.2365016872890893
30
0
11
1.2499999999999984
21
-6.2365016872890893
31
0
0
LINE
5
317
100
AcDbEntity
8
0
100
AcDbLine
10
1.2499999999999984
20
-6.2365016872890893
30
0
11
1.2499999999999987
21
-5.7142857142857144
31
0
0
LINE
5
318
100
AcDbEntity
8
0
100
AcDbLine
10
1.2499999999999987
20
-5.7142857142857144
30
0
11
1.3749999999999984
21
-5.7142857142857144
31
0
0
LINE
5
319
100
AcDbEntity
8
0
100
AcDbLine
10
1.3749999999999984
20
-5.7142857142857144
30
0
11
1.3749999999999984
21
-4.5714285714285721
31
0
0
LINE
5
320
100
AcDbEntity
8
0
100
AcDbLine
10
1.3749999999999984
20
-4.5714285714285721
30
0
11
1.2499999999999987
21
-4.5714285714285721
31
0
0
LINE
5
321
100
AcDbEntity
8
0
100
AcDbLine
10
1.2499999999999987
20
-4.5714285714285721
30
0
11
1.2499999999999984
21
-4.0492125984251981
31
0
0
LINE
5
322
100
AcDbEntity
8
0
100
AcDbLine
10
1.2499999999999984
20
-4.0492125984251981
30
0
11
1.0959645669291322
21
-4.0492125984251981
31
0
0
LINE
5
323
100
AcDbEntity
8
0
100
AcDbLine
10
1.0959645669291322
20
-4.0492125984251981
30
0
11
1.0959645669291322
21
-4.0984251968503944
31
0
0
LINE
5
324
100
AcDbEntity
8
0
100
AcDbLine
10
1.0959645669291322
20
-4.0984251968503944
30
0
11
1.0172244094488174
21
-4.0984251968503944
31
0
0
LINE
5
325
100
AcDbEntity
8
0
100
AcDbLine
10
1.0172244094488174
20
-4.0984251968503944
30
0
11
1.0172244094488174
21
-4.0492125984251981
31
0
0
LINE
5
326
100
AcDbEntity
8
0
100
AcDbLine
10
1.0172244094488174
20
-4.0492125984251981
30
0
11
0.86318897637795122
21
-4.0492125984251981
31
0
0
LINE
5
327
100
AcDbEntity
8
0
100
AcDbLine
10
0.86318897637795122
20
-4.0492125984251981
30
0
11
0.86318897637795122
21
-3.9507874015748041
31
0
0
LINE
5
328
100
AcDbEntity
8
0
100
AcDbLine
10
0.86318897637795122
20
-3.9507874015748041
30
0
11
1.0172244094488174
21
-3.9507874015748041
31
0
0
LINE
5
329
100
AcDbEntity
8
0
100
AcDbLine
10
1.0172244094488174
20
-3.9507874015748041
30
0
11
1.0172244094488174
21
-3.9015748031496074
31
0
0
LINE
5
330
100
AcDbEntity
8
0
100
AcDbLine
10
1.0172244094488174
20
-3.9015748031496074
30
0
11
1.0959645669291322
21
-3.9015748031496074
31
0
0
LINE
5
331
100
AcDbEntity
8
0
100
AcDbLine
10
1.0959645669291322
20
-3.9015748031496074
30
0
11
1.0959645669291322
21
-3.9507874015748041
31
0
0
LWPOLYLINE
5
332
100
AcDbEntity
8
0
100
AcDbPolyline
90
4
70
1
43
0.0
10
-7.4045056791739219
20
-0.49999999999999978
10
-7.4045056791739219
20
-3.9999999999999996
10
-5.9045056791739245
20
-3.9999999999999996
10
-5.9045056791739245
20
-0.49999999999999989
0
CIRCLE
5
333
100
AcDbEntity
8
0
100
AcDbCircle
10
-1.8124999999999998
20
-3
30
0
40
1.1811023622047243
0
LINE
5
334
100
AcDbEntity
8
0
100
AcDbLine
10
-2.3257874015748032
20
-0.23277559055118094
30
0
11
-2.3257874015748032
21
-0.38681102362204756
31
0
0
LINE
5
335
100
AcDbEntity
8
0
100
AcDbLine
10
-2.3257874015748032
20
-0.38681102362204756
30
0
11
-2.4242125984251968
21
-0.38681102362204756
31
0
0
LINE
5
336
100
AcDbEntity
8
0
100
AcDbLine
10
-2.4242125984251968
20
-0.38681102362204756
30
0
11
-2.4242125984251968
21
-0.23277559055118094
31
0
0
LINE
5
337
100
AcDbEntity
8
0
100
AcDbLine
10
-2.4242125984251968
20
-0.23277559055118094
30
0
11
-2.4734251968503935
21
-0.23277559055118094
31
0
0
ENDSEC
0
SECTION
2
OBJECTS
0
DICTIONARY
5
C
100
AcDbDictionary
3
ACAD_GROUP
350
D
3
ACAD_MLINESTYLE
350
17
0
DICTIONARY
5
D
100
AcDbDictionary
0
DICTIONARY
5
1A
330
C
100
AcDbDictionary
0
DICTIONARY
5
17
100
AcDbDictionary
0
ENDSEC
0
EOF
