0
SECTION
2
HEADER
9
$INSUNITS
70
1
9
$ACADVER
1
AC1014
9
$HANDSEED
5
FFFF
0
ENDSEC
0
SECTION
2
TABLES
0
TABLE
2
VPORT
5
8
100
AcDbSymbolTable
0
ENDTAB
0
TABLE
2
LTYPE
5
5
100
AcDbSymbolTable
0
LTYPE
5
14
100
AcDbSymbolTableRecord
100
AcDbLinetypeTableRecord
2
BYBLOCK
70
0
0
LTYPE
5
15
100
AcDbSymbolTableRecord
100
AcDbLinetypeTableRecord
2
BYLAYER
70
0
0
ENDTAB
0
TABLE
2
LAYER
5
2
100
AcDbSymbolTable
70
2
0
LAYER
5
50
100
AcDbSymbolTableRecord
100
AcDbLayerTableRecord
2
0
70
0
6
CONTINUOUS
0
ENDTAB
0
TABLE
2
STYLE
5
3
100
AcDbSymbolTable
70
1
0
STYLE
5
11
100
AcDbSymbolTableRecord
100
AcDbTextStyleTableRecord
2
STANDARD
70
0
0
ENDTAB
0
TABLE
2
VIEW
5
6
100
AcDbSymbolTable
70
0
0
ENDTAB
0
TABLE
2
UCS
5
7
100
AcDbSymbolTable
70
0
0
ENDTAB
0
TABLE
2
APPID
5
9
100
AcDbSymbolTable
70
2
0
APPID
5
12
100
AcDbSymbolTableRecord
100
AcDbRegAppTableRecord
2
ACAD
70
0
0
ENDTAB
0
TABLE
2
DIMSTYLE
5
A
100
AcDbSymbolTable
70
1
0
ENDTAB
0
TABLE
2
BLOCK_RECORD
5
1
100
AcDbSymbolTable
70
1
0
BLOCK_RECORD
5
1F
100
AcDbSymbolTableRecord
100
AcDbBlockTableRecord
2
*MODEL_SPACE
0
BLOCK_RECORD
5
1B
100
AcDbSymbolTableRecord
100
AcDbBlockTableRecord
2
*PAPER_SPACE
0
ENDTAB
0
ENDSEC
0
SECTION
2
BLOCKS
0
BLOCK
5
20
100
AcDbEntity
100
AcDbBlockBegin
2
*MODEL_SPACE
0
ENDBLK
5
21
100
AcDbEntity
100
AcDbBlockEnd
0
BLOCK
5
1C
100
AcDbEntity
100
AcDbBlockBegin
2
*PAPER_SPACE
0
ENDBLK
5
1D
100
AcDbEntity
100
AcDbBlockEnd
0
ENDSEC
0
SECTION
2
ENTITIES
0
LWPOLYLINE
5
100
100
AcDbEntity
8
0
100
AcDbPolyline
90
111
70
1
43
0.0
10
-1.0053200616684488e-15
20
0.20703740157480316
10
0.15403543307086501
20
0.20703740157480316
10
0.15403543307086501
20
0.15782480314960637
10
0.23277559055118002
20
0.15782480314960637
10
0.23277559055118002
20
0.20703740157480316
10
0.38681102362204622
20
0.20703740157480316
10
0.38681102362204622
20
0.30546259842519685
10
0.23277559055118002
20
0.30546259842519685
10
0.23277559055118002
20
0.35467519685039373
10
0.15403543307086501
20
0.35467519685039373
10
0.15403543307086501
20
0.30546259842519685
10
-1.0053200616684488e-15
20
0.30546259842519685
10
-1.3987061727561026e-15
20
0.67500000000000004
10
10.624999999999998
20
0.67499999999999993
10
10.624999999999998
20
0.30546259842519685
10
10.47096456692913
20
0.30546259842519696
10
10.47096456692913
20
0.35467519685039561
10
10.392224409448817
20
0.35467519685039561
10
10.392224409448817
20
0.30546259842519696
10
10.23818897637795
20
0.30546259842519702
10
10.23818897637795
20
0.20703740157480335
10
10.392224409448817
20
0.20703740157480324
10
10.392224409448817
20
0.1578248031496082
10
10.47096456692913
20
0.1578248031496082
10
10.47096456692913
20
0.20703740157480324
10
10.624999999999998
20
0.20703740157480316
10
10.624999999999998
20
-0.16250000000000006
10
10.749999999999998
20
-0.16249999999999998
10
10.749999999999998
20
-1.1249999999999998
10
10.624999999999996
20
-1.1249999999999998
10
10.624999999999996
20
-1.4015258223848619
10
10.470964566929128
20
-1.4015258223848619
10
10.470964566929128
20
-1.352313223959666
10
10.392224409448813
20
-1.352313223959666
10
10.392224409448813
20
-1.4015258223848619
10
10.238188976377948
20
-1.4015258223848619
10
10.238188976377948
20
-1.4999510192352554
10
10.392224409448813
20
-1.4999510192352554
10
10.392224409448813
20
-1.5491636176604533
10
10.470964566929128
20
-1.5491636176604533
10
10.470964566929128
20
-1.4999510192352554
10
10.624999999999996
20
-1.4999510192352554
10
10.624999999999996
20
-1.833333333333333
10
10.749999999999998
20
-1.833333333333333
10
10.749999999999998
20
-2.5416666666666661
10
10.625
20
-2.5416666666666661
10
10.624999999999998
20
-2.8489156183593201
10
10.470964566929132
20
-2.8489156183593201
10
10.470964566929132
20
-2.7997030199341233
10
10.392224409448817
20
-2.7997030199341233
10
10.392224409448817
20
-2.8489156183593201
10
10.23818897637795
20
-2.8489156183593201
10
10.23818897637795
20
-2.9473408152097136
10
10.392224409448817
20
-2.9473408152097136
10
10.392224409448817
20
-2.9965534136349108
10
10.470964566929132
20
-2.9965534136349108
10
10.470964566929132
20
-2.9473408152097136
10
10.624999999999998
20
-2.9473408152097136
10
10.624999999999998
20
-3.1249999999999996
10
9.1249999999999964
20
-3.1249999999999996
10
9.1249999999999964
20
-3.2499999999999996
10
7.6249999999999982
20
-3.2499999999999996
10
7.6249999999999982
20
-3.1249999999999996
10
6.1249999999999982
20
-3.1249999999999996
10
6.1249999999999982
20
-3.2499999999999996
10
4.6249999999999991
20
-3.2499999999999996
10
4.6249999999999991
20
-3.1249999999999996
10
3.1249999999999996
20
-3.1249999999999996
10
3.1249999999999996
20
-3.2499999999999996
10
1.6250000000000004
20
-3.2499999999999996
10
1.6250000000000004
20
-3.1249999999999996
10
0.125000000000001
20
-3.1249999999999996
10
0.125000000000001
20
-3.2499999999999996
10
-1.3750000000000009
20
-3.2499999999999996
10
-1.3750000000000009
20
-2.5416666666666661
10
-1.2500000000000009
20
-2.5416666666666661
10
-1.2500000000000009
20
-2.2367125984251963
10
-1.0959645669291347
20
-2.2367125984251963
10
-1.0959645669291347
20
-2.2859251968503935
10
-1.0172244094488199
20
-2.2859251968503935
10
-1.0172244094488199
20
-2.2367125984251963
10
-0.86318897637795367
20
-2.2367125984251963
10
-0.86318897637795367
20
-2.1382874015748028
10
-1.0172244094488199
20
-2.1382874015748028
10
-1.0172244094488199
20
-2.0890748031496065
10
-1.0959645669291347
20
-2.0890748031496065
10
-1.0959645669291347
20
-2.1382874015748028
10
-1.2500000000000009
20
-2.1382874015748028
10
-1.2500000000000009
20
-1.833333333333333
10
-1.3750000000000009
20
-1.833333333333333
10
-1.3750000000000009
20
-1.1249999999999998
42
-0.28766005493400415
10
-1.3044163534832121
20
-1.0124661807562267
10
-0.94430813190313811
20
-0.83833384960995094
10
-0.88989177841992695
20
-0.95086766885372409
10
-0.73180465324558086
20
-0.87442376121386245
10
-0.66474828064619063
20
-1.013097325872528
10
-0.7090529338917706
20
-1.0345210870863906
10
-0.67477491594959038
20
-1.1054085322793192
10
-0.63047026270401008
20
-1.0839847710654562
10
-0.56341389010462006
20
-1.2226583357241212
10
-0.47480458361346045
20
-1.1798108132963958
10
-0.54186095621285046
20
-1.0411372486377313
10
-0.49755630296727016
20
-1.0197134874238682
10
-0.53183432090945071
20
-0.94882604223094014
10
-0.57613897415503079
20
-0.97024980344480294
10
-0.64319534675442114
20
-0.83157623878613718
10
-0.48510822158007494
20
-0.75513233114627576
10
-0.5395245750632861
20
-0.64259851190250261
10
-0.12500000000000083
20
-0.44215285071634514
10
-0.125000000000001
20
-0.16250000000000006
10
-1.0053200616684488e-15
20
-0.16249999999999998
0
CIRCLE
5
101
100
AcDbEntity
8
0
100
AcDbCircle
10
-0.62499999999999989
20
-3.1874999999999996
30
0
40
0.049212598425196936
0
CIRCLE
5
102
100
AcDbEntity
8
0
100
AcDbCircle
10
5.3749999999999991
20
-3.1874999999999996
30
0
40
0.049212598425196846
0
CIRCLE
5
103
100
AcDbEntity
8
0
100
AcDbCircle
10
7.3515624999999991
20
-1.0625
30
0
40
0.049212598425196846
0
CIRCLE
5
104
100
AcDbEntity
8
0
100
AcDbCircle
10
2.375
20
-3.1874999999999996
30
0
40
0.049212598425196846
0
CIRCLE
5
105
100
AcDbEntity
8
0
100
AcDbCircle
10
4.6328124999999991
20
-1.0625
30
0
40
0.049212598425196846
0
CIRCLE
5
106
100
AcDbEntity
8
0
100
AcDbCircle
10
8.3749999999999964
20
-3.1874999999999996
30
0
40
0.049212598425196846
0
CIRCLE
5
107
100
AcDbEntity
8
0
100
AcDbCircle
10
1.9140624999999989
20
-1.0625
30
0
40
0.049212598425196846
0
ARC
5
108
100
AcDbEntity
8
0
100
AcDbCircle
10
4.5734527925282569
20
-1.5500000414885873
30
0
40
0.062499999999998862
100
AcDbArc
50
131.99794992962833
51
311.99795113704596
0
ARC
5
109
100
AcDbEntity
8
0
100
AcDbCircle
10
4.7985376069512142
20
-1.8000000414885871
30
0
40
0.39889734494168705
100
AcDbArc
50
48.00205007037124
51
131.9979499296289
0
ARC
5
110
100
AcDbEntity
8
0
100
AcDbCircle
10
5.0236224213741707
20
-1.5500000414885873
30
0
40
0.062499999999999667
100
AcDbArc
50
-131.99794992962907
51
48.002050070371943
0
ARC
5
111
100
AcDbEntity
8
0
100
AcDbCircle
10
4.7985376069512142
20
-1.8000000414885871
30
0
40
0.27389734494168833
100
AcDbArc
50
48.002050070371141
51
131.99794992962899
0
ARC
5
112
100
AcDbEntity
8
0
100
AcDbCircle
10
7.7734527925282588
20
-1.5500000414885871
30
0
40
0.0625
100
AcDbArc
50
131.99794992963027
51
311.99794992962967
0
ARC
5
113
100
AcDbEntity
8
0
100
AcDbCircle
10
7.9985376069512135
20
-1.8000000414885888
30
0
40
0.39889734494168827
100
AcDbArc
50
48.002050070371318
51
131.99794992962873
0
ARC
5
114
100
AcDbEntity
8
0
100
AcDbCircle
10
8.2236224213741682
20
-1.5500000414885868
30
0
40
0.062499999999998529
100
AcDbArc
50
-131.99794992962759
51
48.002050070369862
0
ARC
5
115
100
AcDbEntity
8
0
100
AcDbCircle
10
7.9985376069512135
20
-1.8000000414885888
30
0
40
0.27389734494168966
100
AcDbArc
50
48.002050070371382
51
131.99794992962819
0
LWPOLYLINE
5
116
100
AcDbEntity
8
0
100
AcDbPolyline
90
4
70
1
43
0.0
10
9.0197793241378843
20
-1.5071337214354028
42
-0.43166809165443681
10
8.5802212375537597
20
-1.5071337214354026
42
0.99999999999999989
10
8.48925468094974
20
-1.5928663615417717
42
0.43166809165443731
10
9.1107458807419022
20
-1.5928663615417713
42
0.99999999999999989
0
ARC
5
117
100
AcDbEntity
8
0
100
AcDbCircle
10
5.6000002808458218
20
-1.3000000414885873
30
0
40
0.30200528015033801
100
AcDbArc
50
223.30336710786176
51
316.69663289213821
0
ARC
5
118
100
AcDbEntity
8
0
100
AcDbCircle
10
5.8652626024398931
20
-1.5500000414885873
30
0
40
0.062500000000000708
100
AcDbArc
50
-43.303367107860808
51
136.69663168472053
0
ARC
5
119
100
AcDbEntity
8
0
100
AcDbCircle
10
5.6000002808458218
20
-1.3000000414885873
30
0
40
0.42700528015033895
100
AcDbArc
50
223.30336710786167
51
316.69663289213838
0
ARC
5
120
100
AcDbEntity
8
0
100
AcDbCircle
10
5.3347379592517497
20
-1.5500000414885871
30
0
40
0.062500000000000319
100
AcDbArc
50
43.303367107861128
51
223.30336710786182
0
ARC
5
121
100
AcDbEntity
8
0
100
AcDbCircle
10
4.0000002808458222
20
-1.3000000414885873
30
0
40
0.30200528015033801
100
AcDbArc
50
223.30336710786167
51
316.69663289213821
0
ARC
5
122
100
AcDbEntity
8
0
100
AcDbCircle
10
4.2652626024398934
20
-1.5500000414885873
30
0
40
0.062500000000000708
100
AcDbArc
50
-43.303367107861369
51
136.6966316847211
0
ARC
5
123
100
AcDbEntity
8
0
100
AcDbCircle
10
4.0000002808458222
20
-1.3000000414885873
30
0
40
0.42700528015033895
100
AcDbArc
50
223.30336710786167
51
316.69663289213827
0
ARC
5
124
100
AcDbEntity
8
0
100
AcDbCircle
10
3.73473795925175
20
-1.5500000414885871
30
0
40
0.062500000000000319
100
AcDbArc
50
43.303367107861405
51
223.30336710786182
0
LWPOLYLINE
5
125
100
AcDbEntity
8
0
100
AcDbPolyline
90
4
70
1
43
0.0
10
7.4197793241378847
20
-1.5071337214354028
42
-0.43166809165443681
10
6.9802212375537591
20
-1.5071337214354026
42
0.99999999999999989
10
6.8892546809497412
20
-1.5928663615417717
42
0.43166809165443731
10
7.5107458807419025
20
-1.5928663615417713
42
0.99999999999999989
0
ARC
5
126
100
AcDbEntity
8
0
100
AcDbCircle
10
9.5985376069512132
20
-1.8000000414885871
30
0
40
0.27389734494168833
100
AcDbArc
50
48.002050070371141
51
131.99794992962887
0
ARC
5
127
100
AcDbEntity
8
0
100
AcDbCircle
10
9.3734527925282585
20
-1.5500000414885871
30
0
40
0.0625
100
AcDbArc
50
131.99794992963027
51
311.99794992962774
0
ARC
5
128
100
AcDbEntity
8
0
100
AcDbCircle
10
9.5985376069512132
20
-1.8000000414885871
30
0
40
0.39889734494168705
100
AcDbArc
50
48.002050070371148
51
131.9979499296289
0
ARC
5
129
100
AcDbEntity
8
0
100
AcDbCircle
10
9.8236224213741679
20
-1.5500000414885868
30
0
40
0.062499999999998529
100
AcDbArc
50
-131.99794992962759
51
48.002050070369862
0
ARC
5
130
100
AcDbEntity
8
0
100
AcDbCircle
10
6.1734527925282565
20
-1.5500000414885873
30
0
40
0.062499999999998862
100
AcDbArc
50
131.99794992962833
51
311.99795113704658
0
ARC
5
131
100
AcDbEntity
8
0
100
AcDbCircle
10
6.3985376069512139
20
-1.8000000414885877
30
0
40
0.39889734494168749
100
AcDbArc
50
48.002050070371205
51
131.99794992962885
0
ARC
5
132
100
AcDbEntity
8
0
100
AcDbCircle
10
6.6236224213741686
20
-1.5500000414885868
30
0
40
0.062499999999998529
100
AcDbArc
50
-131.99794992962759
51
48.002050070369862
0
ARC
5
133
100
AcDbEntity
8
0
100
AcDbCircle
10
6.3985376069512139
20
-1.8000000414885877
30
0
40
0.27389734494168888
100
AcDbArc
50
48.002050070371226
51
131.9979499296289
0
LWPOLYLINE
5
134
100
AcDbEntity
8
0
100
AcDbPolyline
90
4
70
1
43
0.0
10
3.015271793519104
20
-1.5964480894144955
42
-0.99999999999999989
10
2.9316337915374109
20
-1.5035519935626784
42
-0.38384350878215379
10
3.4654414223650183
20
-1.5035519935626789
42
-0.99999999999999989
10
3.3818034203833238
20
-1.5964480894144955
42
0.38384350878215451
0
LWPOLYLINE
5
135
100
AcDbEntity
8
0
100
AcDbPolyline
90
4
70
1
43
0.0
10
-0.125000000000001
20
-0.99999999999999989
10
-0.125000000000001
20
-1.1249999999999998
10
1.2343749999999989
20
-1.1249999999999998
10
1.2343749999999989
20
-0.99999999999999989
0
LWPOLYLINE
5
136
100
AcDbEntity
8
0
100
AcDbPolyline
90
4
70
1
43
0.0
10
8.0312499999999982
20
-1.1249999999999998
10
9.3906249999999982
20
-1.1249999999999998
10
9.3906249999999982
20
-0.99999999999999989
10
8.0312499999999982
20
-0.99999999999999989
0
LWPOLYLINE
5
137
100
AcDbEntity
8
0
100
AcDbPolyline
90
4
70
1
43
0.0
10
5.3124999999999991
20
-1.1249999999999998
10
6.6718749999999991
20
-1.1249999999999998
10
6.6718749999999991
20
-0.99999999999999989
10
5.3124999999999991
20
-0.99999999999999989
0
CIRCLE
5
138
100
AcDbEntity
8
0
100
AcDbCircle
10
9.0000002872286817
20
0.27500000319143048
30
0
40
0.051181102362204328
0
CIRCLE
5
139
100
AcDbEntity
8
0
100
AcDbCircle
10
1.6249997127713169
20
0.27500000319142753
30
0
40
0.051181102362204675
0
LWPOLYLINE
5
140
100
AcDbEntity
8
0
100
AcDbPolyline
90
4
70
1
43
0.0
10
2.5937499999999991
20
-1.1249999999999998
10
3.9531249999999991
20
-1.1249999999999998
10
3.9531249999999991
20
-0.99999999999999989
10
2.5937499999999991
20
-0.99999999999999989
0
ENDSEC
0
SECTION
2
OBJECTS
0
DICTIONARY
5
C
100
AcDbDictionary
3
ACAD_GROUP
350
D
3
ACAD_MLINESTYLE
350
17
0
DICTIONARY
5
D
100
AcDbDictionary
0
DICTIONARY
5
1A
330
C
100
AcDbDictionary
0
DICTIONARY
5
17
100
AcDbDictionary
0
ENDSEC
0
EOF
