0
SECTION
2
HEADER
9
$INSUNITS
70
1
9
$ACADVER
1
AC1014
9
$HANDSEED
5
FFFF
0
ENDSEC
0
SECTION
2
TABLES
0
TABLE
2
VPORT
5
8
100
AcDbSymbolTable
0
ENDTAB
0
TABLE
2
LTYPE
5
5
100
AcDbSymbolTable
0
LTYPE
5
14
100
AcDbSymbolTableRecord
100
AcDbLinetypeTableRecord
2
BYBLOCK
70
0
0
LTYPE
5
15
100
AcDbSymbolTableRecord
100
AcDbLinetypeTableRecord
2
BYLAYER
70
0
0
ENDTAB
0
TABLE
2
LAYER
5
2
100
AcDbSymbolTable
70
2
0
LAYER
5
50
100
AcDbSymbolTableRecord
100
AcDbLayerTableRecord
2
0
70
0
6
CONTINUOUS
0
ENDTAB
0
TABLE
2
STYLE
5
3
100
AcDbSymbolTable
70
1
0
STYLE
5
11
100
AcDbSymbolTableRecord
100
AcDbTextStyleTableRecord
2
STANDARD
70
0
0
ENDTAB
0
TABLE
2
VIEW
5
6
100
AcDbSymbolTable
70
0
0
ENDTAB
0
TABLE
2
UCS
5
7
100
AcDbSymbolTable
70
0
0
ENDTAB
0
TABLE
2
APPID
5
9
100
AcDbSymbolTable
70
2
0
APPID
5
12
100
AcDbSymbolTableRecord
100
AcDbRegAppTableRecord
2
ACAD
70
0
0
ENDTAB
0
TABLE
2
DIMSTYLE
5
A
100
AcDbSymbolTable
70
1
0
ENDTAB
0
TABLE
2
BLOCK_RECORD
5
1
100
AcDbSymbolTable
70
1
0
BLOCK_RECORD
5
1F
100
AcDbSymbolTableRecord
100
AcDbBlockTableRecord
2
*MODEL_SPACE
0
BLOCK_RECORD
5
1B
100
AcDbSymbolTableRecord
100
AcDbBlockTableRecord
2
*PAPER_SPACE
0
ENDTAB
0
ENDSEC
0
SECTION
2
BLOCKS
0
BLOCK
5
20
100
AcDbEntity
100
AcDbBlockBegin
2
*MODEL_SPACE
0
ENDBLK
5
21
100
AcDbEntity
100
AcDbBlockEnd
0
BLOCK
5
1C
100
AcDbEntity
100
AcDbBlockBegin
2
*PAPER_SPACE
0
ENDBLK
5
1D
100
AcDbEntity
100
AcDbBlockEnd
0
ENDSEC
0
SECTION
2
ENTITIES
0
CIRCLE
5
100
100
AcDbEntity
8
0
100
AcDbCircle
10
-8.0624999999999982
20
0.25625000000000037
30
0
40
0.049212598425196846
0
CIRCLE
5
101
100
AcDbEntity
8
0
100
AcDbCircle
10
0.062499999999999604
20
0.25625000000000037
30
0
40
0.049212598425196867
0
LWPOLYLINE
5
102
100
AcDbEntity
8
0
100
AcDbPolyline
90
4
70
1
43
0.0
10
-3.3000002457400934
20
-2.0000000638285957
42
-0.99999999999999989
10
-3.3000002457400934
20
-1.8000000574457362
10
-2.5000002202086553
20
-1.8000000574457362
42
-0.99999999999999989
10
-2.5000002202086553
20
-2.0000000638285957
0
LWPOLYLINE
5
103
100
AcDbEntity
8
0
100
AcDbPolyline
90
4
70
1
43
0.0
10
-5.5000002457400941
20
-2.0000000638285957
42
-0.99999999999999989
10
-5.5000002457400941
20
-1.8000000574457362
10
-4.700000220208655
20
-1.8000000574457362
42
-0.99999999999999989
10
-4.700000220208655
20
-2.0000000638285957
0
LWPOLYLINE
5
104
100
AcDbEntity
8
0
100
AcDbPolyline
90
4
70
1
43
0.0
10
-1.1000002457400933
20
-2.0000000638285957
42
-0.99999999999999989
10
-1.1000002457400933
20
-1.8000000574457362
10
-0.30000022020865497
20
-1.8000000574457362
42
-0.99999999999999989
10
-0.30000022020865497
20
-2.0000000638285957
0
LWPOLYLINE
5
105
100
AcDbEntity
8
0
100
AcDbPolyline
90
4
70
1
43
0.0
10
-6.9000002202086552
20
-1.8000000574457362
10
-7.7000002457400942
20
-1.8000000574457362
42
0.99999999999999989
10
-7.7000002457400942
20
-2.0000000638285957
10
-6.9000002202086552
20
-2.0000000638285957
42
0.99999999999999989
0
LWPOLYLINE
5
106
100
AcDbEntity
8
0
100
AcDbPolyline
90
4
70
1
43
0.0
10
-6.8571428571428559
20
-0.42499999999999977
10
-6.8571428571428559
20
-0.5812499999999996
10
-5.7142857142857144
20
-0.5812499999999996
10
-5.7142857142857144
20
-0.42499999999999977
0
LWPOLYLINE
5
107
100
AcDbEntity
8
0
100
AcDbPolyline
90
4
70
1
43
0.0
10
-4.5714285714285721
20
-0.42499999999999977
10
-4.5714285714285721
20
-0.5812499999999996
10
-3.4285714285714297
20
-0.5812499999999996
10
-3.4285714285714297
20
-0.42499999999999977
0
LWPOLYLINE
5
108
100
AcDbEntity
8
0
100
AcDbPolyline
90
4
70
1
43
0.0
10
-2.2857142857142869
20
-0.42499999999999977
10
-2.2857142857142869
20
-0.5812499999999996
10
-1.1428571428571446
20
-0.5812499999999996
10
-1.1428571428571446
20
-0.42499999999999977
0
LWPOLYLINE
5
109
100
AcDbEntity
8
0
100
AcDbPolyline
90
16
70
1
43
0.0
10
-8
20
-2.1875
10
-8
20
-1.1249999999999998
10
-6.8571428571428559
20
-1.1249999999999998
10
-6.8571428571428559
20
-1.0000000000000002
10
-7.9999999999999991
20
-1.0000000000000002
10
-7.9999999999999991
20
-0.16250000000000031
10
-8.1249999999999982
20
-0.16250000000000031
10
-8.1249999999999982
20
0.6749999999999996
10
0.1249999999999996
20
0.6749999999999996
10
0.1249999999999996
20
-0.16250000000000031
10
0
20
-0.16250000000000031
10
-1.3987061727561026e-15
20
-1.0000000000000002
10
-1.1428571428571446
20
-1.0000000000000002
10
-1.1428571428571446
20
-1.1249999999999998
10
-3.4967654318902565e-16
20
-1.1249999999999998
10
0
20
-2.1875
0
LWPOLYLINE
5
110
100
AcDbEntity
8
0
100
AcDbPolyline
90
4
70
1
43
0.0
10
-3.4285714285714297
20
-1.0000000000000002
10
-3.4285714285714297
20
-1.1249999999999998
10
-2.2857142857142869
20
-1.1249999999999998
10
-2.2857142857142869
20
-1.0000000000000002
0
LWPOLYLINE
5
111
100
AcDbEntity
8
0
100
AcDbPolyline
90
4
70
1
43
0.0
10
-5.7142857142857144
20
-1.0000000000000002
10
-5.7142857142857144
20
-1.1249999999999998
10
-4.5714285714285721
20
-1.1249999999999998
10
-4.5714285714285721
20
-1.0000000000000002
0
ENDSEC
0
SECTION
2
OBJECTS
0
DICTIONARY
5
C
100
AcDbDictionary
3
ACAD_GROUP
350
D
3
ACAD_MLINESTYLE
350
17
0
DICTIONARY
5
D
100
AcDbDictionary
0
DICTIONARY
5
1A
330
C
100
AcDbDictionary
0
DICTIONARY
5
17
100
AcDbDictionary
0
ENDSEC
0
EOF
