0
SECTION
2
HEADER
9
$INSUNITS
70
1
9
$ACADVER
1
AC1014
9
$HANDSEED
5
FFFF
0
ENDSEC
0
SECTION
2
TABLES
0
TABLE
2
VPORT
5
8
100
AcDbSymbolTable
0
ENDTAB
0
TABLE
2
LTYPE
5
5
100
AcDbSymbolTable
0
LTYPE
5
14
100
AcDbSymbolTableRecord
100
AcDbLinetypeTableRecord
2
BYBLOCK
70
0
0
LTYPE
5
15
100
AcDbSymbolTableRecord
100
AcDbLinetypeTableRecord
2
BYLAYER
70
0
0
ENDTAB
0
TABLE
2
LAYER
5
2
100
AcDbSymbolTable
70
2
0
LAYER
5
50
100
AcDbSymbolTableRecord
100
AcDbLayerTableRecord
2
0
70
0
6
CONTINUOUS
0
ENDTAB
0
TABLE
2
STYLE
5
3
100
AcDbSymbolTable
70
1
0
STYLE
5
11
100
AcDbSymbolTableRecord
100
AcDbTextStyleTableRecord
2
STANDARD
70
0
0
ENDTAB
0
TABLE
2
VIEW
5
6
100
AcDbSymbolTable
70
0
0
ENDTAB
0
TABLE
2
UCS
5
7
100
AcDbSymbolTable
70
0
0
ENDTAB
0
TABLE
2
APPID
5
9
100
AcDbSymbolTable
70
2
0
APPID
5
12
100
AcDbSymbolTableRecord
100
AcDbRegAppTableRecord
2
ACAD
70
0
0
ENDTAB
0
TABLE
2
DIMSTYLE
5
A
100
AcDbSymbolTable
70
1
0
ENDTAB
0
TABLE
2
BLOCK_RECORD
5
1
100
AcDbSymbolTable
70
1
0
BLOCK_RECORD
5
1F
100
AcDbSymbolTableRecord
100
AcDbBlockTableRecord
2
*MODEL_SPACE
0
BLOCK_RECORD
5
1B
100
AcDbSymbolTableRecord
100
AcDbBlockTableRecord
2
*PAPER_SPACE
0
ENDTAB
0
ENDSEC
0
SECTION
2
BLOCKS
0
BLOCK
5
20
100
AcDbEntity
100
AcDbBlockBegin
2
*MODEL_SPACE
0
ENDBLK
5
21
100
AcDbEntity
100
AcDbBlockEnd
0
BLOCK
5
1C
100
AcDbEntity
100
AcDbBlockBegin
2
*PAPER_SPACE
0
ENDBLK
5
1D
100
AcDbEntity
100
AcDbBlockEnd
0
ENDSEC
0
SECTION
2
ENTITIES
0
CIRCLE
5
100
100
AcDbEntity
8
0
100
AcDbCircle
10
-8.0625000000000036
20
-0.99027320201018654
30
-8.7419135797256413e-17
40
0.04921259842519686
0
CIRCLE
5
101
100
AcDbEntity
8
0
100
AcDbCircle
10
0.062499999999999813
20
-0.99027320201018654
30
-4.3709567898628207e-17
40
0.04921259842519686
0
CIRCLE
5
102
100
AcDbEntity
8
0
100
AcDbCircle
10
-3.5000000000000036
20
-1.2402732020101868
30
-4.3709567898628207e-17
40
0.11811023622047273
0
CIRCLE
5
103
100
AcDbEntity
8
0
100
AcDbCircle
10
-4.610000000000003
20
-0.65377320201018652
30
4.3709567898628207e-17
40
0.039370078740157341
0
CIRCLE
5
104
100
AcDbEntity
8
0
100
AcDbCircle
10
-4.610000000000003
20
-1.3267732020101863
30
-4.3709567898628207e-17
40
0.039370078740157341
0
CIRCLE
5
105
100
AcDbEntity
8
0
100
AcDbCircle
10
-2.500000000000004
20
-0.99027320201018654
30
-8.7419135797256413e-17
40
0.11811023622047238
0
CIRCLE
5
106
100
AcDbEntity
8
0
100
AcDbCircle
10
-3.5000000000000036
20
-0.74027320201018665
30
4.3709567898628207e-17
40
0.11811023622047273
0
CIRCLE
5
107
100
AcDbEntity
8
0
100
AcDbCircle
10
-5.6300000000000034
20
-0.65377320201018652
30
4.3709567898628207e-17
40
0.039370078740158049
0
CIRCLE
5
108
100
AcDbEntity
8
0
100
AcDbCircle
10
-5.6300000000000034
20
-1.3267732020101863
30
-4.3709567898628207e-17
40
0.039370078740157341
0
LWPOLYLINE
5
109
100
AcDbEntity
8
0
100
AcDbPolyline
90
4
70
1
43
0.0
10
-5.7500000000000036
20
-1.2652732020101867
10
-4.4000000000000039
20
-1.2652732020101867
10
-4.4000000000000048
20
-0.71527320201018674
10
-5.7500000000000036
20
-0.71527320201018652
0
LWPOLYLINE
5
110
100
AcDbEntity
8
0
100
AcDbPolyline
90
36
70
1
43
0.0
10
-1.7483827159451344e-16
20
-1.2150853737866334
10
-4.1961185182683078e-15
20
-1.5713691930304061
10
-1.1428571428571461
20
-1.5713691930304061
10
-1.1428571428571461
20
-1.7276191930304059
10
-2.2857142857142887
20
-1.7276191930304059
10
-2.2857142857142891
20
-1.5713691930304061
10
-3.4285714285714315
20
-1.5713691930304061
10
-3.4285714285714315
20
-1.7276191930304059
10
-4.5714285714285738
20
-1.7276191930304059
10
-4.5714285714285747
20
-1.5713691930304061
10
-5.7142857142857171
20
-1.5713691930304061
10
-5.7142857142857171
20
-1.7276191930304059
10
-6.8571428571428603
20
-1.7276191930304059
10
-6.8571428571428603
20
-1.5713691930304061
10
-8.0000000000000018
20
-1.5713691930304061
10
-8.0000000000000018
20
-1.2150853737866334
10
-8.1250000000000018
20
-1.2150853737866334
10
-8.1250000000000018
20
-0.76546103023373979
10
-8.0000000000000018
20
-0.76546103023373979
10
-8.0000000000000018
20
-0.35261919303040573
10
-6.8571428571428577
20
-0.35261919303040568
10
-6.8571428571428577
20
-0.22761919303040559
10
-5.7142857142857144
20
-0.22761919303040562
10
-5.7142857142857135
20
-0.35261919303040573
10
-4.5714285714285712
20
-0.35261919303040568
10
-4.5714285714285712
20
-0.22761919303040559
10
-3.4285714285714288
20
-0.22761919303040562
10
-3.4285714285714288
20
-0.35261919303040573
10
-2.285714285714286
20
-0.35261919303040568
10
-2.285714285714286
20
-0.22761919303040559
10
-1.1428571428571432
20
-0.22761919303040562
10
-1.1428571428571432
20
-0.35261919303040573
10
-1.9389702098923204e-16
20
-0.35261919303040573
10
-1.7483827159451283e-16
20
-0.76546103023373979
10
0.12499999999999979
20
-0.7654610302337399
10
0.12499999999999979
20
-1.2150853737866334
0
ENDSEC
0
SECTION
2
OBJECTS
0
DICTIONARY
5
C
100
AcDbDictionary
3
ACAD_GROUP
350
D
3
ACAD_MLINESTYLE
350
17
0
DICTIONARY
5
D
100
AcDbDictionary
0
DICTIONARY
5
1A
330
C
100
AcDbDictionary
0
DICTIONARY
5
17
100
AcDbDictionary
0
ENDSEC
0
EOF
