0
SECTION
2
HEADER
9
$INSUNITS
70
1
9
$ACADVER
1
AC1014
9
$HANDSEED
5
FFFF
0
ENDSEC
0
SECTION
2
TABLES
0
TABLE
2
VPORT
5
8
100
AcDbSymbolTable
0
ENDTAB
0
TABLE
2
LTYPE
5
5
100
AcDbSymbolTable
0
LTYPE
5
14
100
AcDbSymbolTableRecord
100
AcDbLinetypeTableRecord
2
BYBLOCK
70
0
0
LTYPE
5
15
100
AcDbSymbolTableRecord
100
AcDbLinetypeTableRecord
2
BYLAYER
70
0
0
ENDTAB
0
TABLE
2
LAYER
5
2
100
AcDbSymbolTable
70
2
0
LAYER
5
50
100
AcDbSymbolTableRecord
100
AcDbLayerTableRecord
2
0
70
0
6
CONTINUOUS
0
ENDTAB
0
TABLE
2
STYLE
5
3
100
AcDbSymbolTable
70
1
0
STYLE
5
11
100
AcDbSymbolTableRecord
100
AcDbTextStyleTableRecord
2
STANDARD
70
0
0
ENDTAB
0
TABLE
2
VIEW
5
6
100
AcDbSymbolTable
70
0
0
ENDTAB
0
TABLE
2
UCS
5
7
100
AcDbSymbolTable
70
0
0
ENDTAB
0
TABLE
2
APPID
5
9
100
AcDbSymbolTable
70
2
0
APPID
5
12
100
AcDbSymbolTableRecord
100
AcDbRegAppTableRecord
2
ACAD
70
0
0
ENDTAB
0
TABLE
2
DIMSTYLE
5
A
100
AcDbSymbolTable
70
1
0
ENDTAB
0
TABLE
2
BLOCK_RECORD
5
1
100
AcDbSymbolTable
70
1
0
BLOCK_RECORD
5
1F
100
AcDbSymbolTableRecord
100
AcDbBlockTableRecord
2
*MODEL_SPACE
0
BLOCK_RECORD
5
1B
100
AcDbSymbolTableRecord
100
AcDbBlockTableRecord
2
*PAPER_SPACE
0
ENDTAB
0
ENDSEC
0
SECTION
2
BLOCKS
0
BLOCK
5
20
100
AcDbEntity
100
AcDbBlockBegin
2
*MODEL_SPACE
0
ENDBLK
5
21
100
AcDbEntity
100
AcDbBlockEnd
0
BLOCK
5
1C
100
AcDbEntity
100
AcDbBlockBegin
2
*PAPER_SPACE
0
ENDBLK
5
1D
100
AcDbEntity
100
AcDbBlockEnd
0
ENDSEC
0
SECTION
2
ENTITIES
0
CIRCLE
5
100
100
AcDbEntity
8
0
100
AcDbCircle
10
0.062500000000001027
20
-1.65625
30
0
40
0.049212598425196888
0
LWPOLYLINE
5
101
100
AcDbEntity
8
0
100
AcDbPolyline
90
4
70
1
43
0.0
10
-2.5006005662315274
20
-1.1249999999999998
10
-2.5006005662315274
20
-1.875
10
-1.7506005662315278
20
-1.875
10
-1.7506005662315278
20
-1.1249999999999998
0
LWPOLYLINE
5
102
100
AcDbEntity
8
0
100
AcDbPolyline
90
4
70
1
43
0.0
10
-9.3906249999999982
20
-0.99999999999999989
10
-9.3906249999999982
20
-1.1249999999999998
10
-8.0312499999999982
20
-1.1249999999999998
10
-8.0312499999999982
20
-0.99999999999999989
0
LWPOLYLINE
5
103
100
AcDbEntity
8
0
100
AcDbPolyline
90
4
70
1
43
0.0
10
-6.6718749999999991
20
-0.99999999999999989
10
-6.6718749999999991
20
-1.1249999999999998
10
-5.3125
20
-1.1249999999999998
10
-5.3125
20
-0.99999999999999989
0
LWPOLYLINE
5
104
100
AcDbEntity
8
0
100
AcDbPolyline
90
4
70
1
43
0.0
10
-3.9531249999999996
20
-0.99999999999999989
10
-3.9531249999999996
20
-1.1249999999999998
10
-2.5937499999999991
20
-1.1249999999999998
10
-2.5937499999999991
20
-0.99999999999999989
0
CIRCLE
5
105
100
AcDbEntity
8
0
100
AcDbCircle
10
-9.0000002872286817
20
0.27500000319143048
30
0
40
0.051181102362204328
0
CIRCLE
5
106
100
AcDbEntity
8
0
100
AcDbCircle
10
-1.6249997127713169
20
0.27500000319142753
30
0
40
0.051181102362204675
0
LWPOLYLINE
5
107
100
AcDbEntity
8
0
100
AcDbPolyline
90
4
70
1
43
0.0
10
0.125000000000001
20
-1.1249999999999998
10
0.125000000000001
20
-0.99999999999999989
10
-1.2343749999999989
20
-0.99999999999999989
10
-1.2343749999999989
20
-1.1249999999999998
0
ARC
5
108
100
AcDbEntity
8
0
100
AcDbCircle
10
-4.000000280845823
20
-1.1000000414885873
30
0
40
0.30200528015033812
100
AcDbArc
50
223.30336710786179
51
316.69663289213833
0
ARC
5
109
100
AcDbEntity
8
0
100
AcDbCircle
10
-3.7347379592517509
20
-1.3500000414885873
30
0
40
0.062500000000000833
100
AcDbArc
50
-43.303367107861121
51
136.69663289213833
0
ARC
5
110
100
AcDbEntity
8
0
100
AcDbCircle
10
-4.000000280845823
20
-1.1000000414885873
30
0
40
0.42700528015033895
100
AcDbArc
50
223.30336710786176
51
316.69663289213844
0
ARC
5
111
100
AcDbEntity
8
0
100
AcDbCircle
10
-4.2652626024398934
20
-1.3500000414885871
30
0
40
0.062499999999999813
100
AcDbArc
50
43.303367107862101
51
223.30336831527947
0
LWPOLYLINE
5
112
100
AcDbEntity
8
0
100
AcDbPolyline
90
4
70
1
43
0.0
10
-8.5802212375537597
20
-1.3071337214354029
42
-0.43166809165443676
10
-9.0197793241378843
20
-1.3071337214354029
42
0.99999999999999989
10
-9.1107458807419022
20
-1.3928663615417718
42
0.43166809165443787
10
-8.48925468094974
20
-1.3928663615417718
42
0.99999999999999989
0
LWPOLYLINE
5
113
100
AcDbEntity
8
0
100
AcDbPolyline
90
4
70
1
43
0.0
10
-6.9802212375537591
20
-1.3071337214354029
42
-0.43166809165443676
10
-7.4197793241378847
20
-1.3071337214354029
42
0.99999999999999989
10
-7.5107458807419025
20
-1.3928663615417718
42
0.43166809165443787
10
-6.8892546809497395
20
-1.3928663615417718
42
0.99999999999999989
0
LWPOLYLINE
5
114
100
AcDbEntity
8
0
100
AcDbPolyline
90
4
70
1
43
0.0
10
-4.5316337915374101
20
-1.3035519935626791
42
-0.99999999999999989
10
-4.6152717935191028
20
-1.3964480894144955
42
0.3838435087821554
10
-4.981803420383323
20
-1.3964480894144957
42
-0.99999999999999989
10
-5.0654414223650166
20
-1.3035519935626778
42
-0.38384350878215406
0
ARC
5
115
100
AcDbEntity
8
0
100
AcDbCircle
10
-9.5985376069512132
20
-1.6000000414885871
30
0
40
0.27389734494168833
100
AcDbArc
50
48.002050070371141
51
131.99794992962887
0
ARC
5
116
100
AcDbEntity
8
0
100
AcDbCircle
10
-9.8236224213741679
20
-1.3500000414885869
30
0
40
0.06249999999999907
100
AcDbArc
50
131.99794992962907
51
311.99794992962757
0
ARC
5
117
100
AcDbEntity
8
0
100
AcDbCircle
10
-9.5985376069512132
20
-1.6000000414885871
30
0
40
0.39889734494168705
100
AcDbArc
50
48.002050070371148
51
131.9979499296287
0
ARC
5
118
100
AcDbEntity
8
0
100
AcDbCircle
10
-9.3734527925282549
20
-1.3500000414885871
30
0
40
0.062500000000000264
100
AcDbArc
50
-131.99794992963012
51
48.002050070372434
0
LWPOLYLINE
5
119
100
AcDbEntity
8
0
100
AcDbPolyline
90
4
70
1
43
0.0
10
-6.1316337915374097
20
-1.3035519935626791
42
-0.99999999999999989
10
-6.2152717935191033
20
-1.3964480894144955
42
0.38384350878215484
10
-6.5818034203833227
20
-1.3964480894144951
42
-0.99999999999999989
10
-6.6654414223650171
20
-1.3035519935626778
42
-0.38384350878215368
0
CIRCLE
5
120
100
AcDbEntity
8
0
100
AcDbCircle
10
-1.9140624999999989
20
-1.0625
30
0
40
0.049212598425196846
0
CIRCLE
5
121
100
AcDbEntity
8
0
100
AcDbCircle
10
-8.3749999999999964
20
-3.1874999999999996
30
0
40
0.049212598425196846
0
CIRCLE
5
122
100
AcDbEntity
8
0
100
AcDbCircle
10
-4.6328124999999982
20
-1.0625
30
0
40
0.049212598425196846
0
CIRCLE
5
123
100
AcDbEntity
8
0
100
AcDbCircle
10
-2.375
20
-3.1874999999999996
30
0
40
0.049212598425196846
0
CIRCLE
5
124
100
AcDbEntity
8
0
100
AcDbCircle
10
-7.3515624999999973
20
-1.0625
30
0
40
0.049212598425196846
0
CIRCLE
5
125
100
AcDbEntity
8
0
100
AcDbCircle
10
-5.3749999999999991
20
-3.1874999999999996
30
0
40
0.049212598425196846
0
CIRCLE
5
126
100
AcDbEntity
8
0
100
AcDbCircle
10
0.62500000000000011
20
-3.1874999999999996
30
0
40
0.049212598425196936
0
LWPOLYLINE
5
127
100
AcDbEntity
8
0
100
AcDbPolyline
90
111
70
1
43
0.0
10
-0.15403543307086487
20
0.20703740157480316
10
1.049029629567077e-15
20
0.20703740157480316
10
1.049029629567077e-15
20
-0.16249999999999998
10
0.125000000000001
20
-0.16249999999999998
10
0.125000000000001
20
-0.44215285071634514
10
0.5395245750632861
20
-0.64259851190250261
10
0.48510822158007511
20
-0.75513233114627576
10
0.64319534675442125
20
-0.83157623878613718
10
0.5761389741550309
20
-0.97024980344480294
10
0.5318343209094506
20
-0.94882604223094014
10
0.4975563029672701
20
-1.0197134874238682
10
0.54186095621285046
20
-1.0411372486377313
10
0.47480458361346045
20
-1.1798108132963958
10
0.56341389010462017
20
-1.2226583357241212
10
0.63047026270401019
20
-1.0839847710654562
10
0.67477491594959049
20
-1.1054085322793192
10
0.7090529338917706
20
-1.0345210870863906
10
0.66474828064619063
20
-1.013097325872528
10
0.73180465324558097
20
-0.87442376121386245
10
0.88989177841992673
20
-0.95086766885372409
10
0.94430813190313811
20
-0.83833384960995094
10
1.3044163534832121
20
-1.0124661807562267
42
-0.28766005493400454
10
1.3750000000000009
20
-1.1249999999999998
10
1.3750000000000009
20
-1.833333333333333
10
1.2500000000000009
20
-1.833333333333333
10
1.2500000000000009
20
-2.1382874015748028
10
1.0959645669291347
20
-2.1382874015748028
10
1.0959645669291347
20
-2.0890748031496065
10
1.0172244094488199
20
-2.0890748031496065
10
1.0172244094488199
20
-2.1382874015748028
10
0.86318897637795367
20
-2.1382874015748028
10
0.86318897637795367
20
-2.2367125984251963
10
1.0172244094488199
20
-2.2367125984251963
10
1.0172244094488199
20
-2.2859251968503935
10
1.0959645669291347
20
-2.2859251968503935
10
1.0959645669291347
20
-2.2367125984251963
10
1.2500000000000009
20
-2.2367125984251963
10
1.2500000000000009
20
-2.5416666666666661
10
1.3750000000000009
20
-2.5416666666666661
10
1.3750000000000009
20
-3.2499999999999996
10
-0.125000000000001
20
-3.2499999999999996
10
-0.125000000000001
20
-3.1249999999999996
10
-1.6250000000000004
20
-3.1249999999999996
10
-1.6250000000000004
20
-3.2499999999999996
10
-3.1249999999999996
20
-3.2499999999999996
10
-3.1249999999999996
20
-3.1249999999999996
10
-4.6249999999999982
20
-3.1249999999999996
10
-4.6249999999999982
20
-3.2499999999999996
10
-6.1249999999999991
20
-3.2499999999999996
10
-6.1249999999999991
20
-3.1249999999999996
10
-7.6249999999999964
20
-3.1249999999999996
10
-7.6249999999999964
20
-3.2499999999999996
10
-9.1249999999999964
20
-3.2499999999999996
10
-9.1249999999999964
20
-3.1249999999999996
10
-10.624999999999998
20
-3.1249999999999996
10
-10.624999999999998
20
-2.9473408152097136
10
-10.470964566929132
20
-2.9473408152097136
10
-10.470964566929132
20
-2.9965534136349108
10
-10.392224409448817
20
-2.9965534136349108
10
-10.392224409448817
20
-2.9473408152097136
10
-10.23818897637795
20
-2.9473408152097136
10
-10.23818897637795
20
-2.8489156183593201
10
-10.392224409448817
20
-2.8489156183593201
10
-10.392224409448817
20
-2.7997030199341233
10
-10.470964566929132
20
-2.7997030199341233
10
-10.470964566929132
20
-2.8489156183593201
10
-10.624999999999998
20
-2.8489156183593201
10
-10.624999999999995
20
-2.5416666666666661
10
-10.749999999999996
20
-2.5416666666666661
10
-10.749999999999996
20
-1.833333333333333
10
-10.624999999999995
20
-1.833333333333333
10
-10.624999999999995
20
-1.4999510192352554
10
-10.470964566929126
20
-1.4999510192352554
10
-10.470964566929126
20
-1.5491636176604533
10
-10.392224409448813
20
-1.5491636176604533
10
-10.392224409448813
20
-1.4999510192352554
10
-10.238188976377947
20
-1.4999510192352554
10
-10.238188976377947
20
-1.4015258223848619
10
-10.392224409448813
20
-1.4015258223848619
10
-10.392224409448813
20
-1.352313223959666
10
-10.470964566929126
20
-1.352313223959666
10
-10.470964566929126
20
-1.4015258223848619
10
-10.624999999999995
20
-1.4015258223848619
10
-10.624999999999995
20
-1.1249999999999998
10
-10.749999999999996
20
-1.1249999999999998
10
-10.749999999999996
20
-0.16249999999999998
10
-10.624999999999998
20
-0.16249999999999998
10
-10.624999999999998
20
0.20703740157480316
10
-10.47096456692913
20
0.20703740157480324
10
-10.47096456692913
20
0.1578248031496082
10
-10.392224409448817
20
0.1578248031496082
10
-10.392224409448817
20
0.20703740157480324
10
-10.23818897637795
20
0.20703740157480335
10
-10.23818897637795
20
0.30546259842519702
10
-10.392224409448817
20
0.30546259842519696
10
-10.392224409448817
20
0.35467519685039561
10
-10.47096456692913
20
0.35467519685039561
10
-10.47096456692913
20
0.30546259842519696
10
-10.624999999999998
20
0.30546259842519685
10
-10.624999999999998
20
0.67500000000000004
10
1.049029629567077e-15
20
0.67500000000000004
10
1.049029629567077e-15
20
0.30546259842519685
10
-0.15403543307086487
20
0.30546259842519685
10
-0.15403543307086487
20
0.35467519685039373
10
-0.23277559055117988
20
0.35467519685039373
10
-0.23277559055117988
20
0.30546259842519685
10
-0.38681102362204611
20
0.30546259842519685
10
-0.38681102362204611
20
0.20703740157480316
10
-0.23277559055117988
20
0.20703740157480316
10
-0.23277559055117988
20
0.15782480314960637
10
-0.15403543307086487
20
0.15782480314960637
0
ENDSEC
0
SECTION
2
OBJECTS
0
DICTIONARY
5
C
100
AcDbDictionary
3
ACAD_GROUP
350
D
3
ACAD_MLINESTYLE
350
17
0
DICTIONARY
5
D
100
AcDbDictionary
0
DICTIONARY
5
1A
330
C
100
AcDbDictionary
0
DICTIONARY
5
17
100
AcDbDictionary
0
ENDSEC
0
EOF
