0
SECTION
2
HEADER
9
$INSUNITS
70
1
9
$ACADVER
1
AC1014
9
$HANDSEED
5
FFFF
0
ENDSEC
0
SECTION
2
TABLES
0
TABLE
2
VPORT
5
8
100
AcDbSymbolTable
0
ENDTAB
0
TABLE
2
LTYPE
5
5
100
AcDbSymbolTable
0
LTYPE
5
14
100
AcDbSymbolTableRecord
100
AcDbLinetypeTableRecord
2
BYBLOCK
70
0
0
LTYPE
5
15
100
AcDbSymbolTableRecord
100
AcDbLinetypeTableRecord
2
BYLAYER
70
0
0
ENDTAB
0
TABLE
2
LAYER
5
2
100
AcDbSymbolTable
70
2
0
LAYER
5
50
100
AcDbSymbolTableRecord
100
AcDbLayerTableRecord
2
0
70
0
6
CONTINUOUS
0
ENDTAB
0
TABLE
2
STYLE
5
3
100
AcDbSymbolTable
70
1
0
STYLE
5
11
100
AcDbSymbolTableRecord
100
AcDbTextStyleTableRecord
2
STANDARD
70
0
0
ENDTAB
0
TABLE
2
VIEW
5
6
100
AcDbSymbolTable
70
0
0
ENDTAB
0
TABLE
2
UCS
5
7
100
AcDbSymbolTable
70
0
0
ENDTAB
0
TABLE
2
APPID
5
9
100
AcDbSymbolTable
70
2
0
APPID
5
12
100
AcDbSymbolTableRecord
100
AcDbRegAppTableRecord
2
ACAD
70
0
0
ENDTAB
0
TABLE
2
DIMSTYLE
5
A
100
AcDbSymbolTable
70
1
0
ENDTAB
0
TABLE
2
BLOCK_RECORD
5
1
100
AcDbSymbolTable
70
1
0
BLOCK_RECORD
5
1F
100
AcDbSymbolTableRecord
100
AcDbBlockTableRecord
2
*MODEL_SPACE
0
BLOCK_RECORD
5
1B
100
AcDbSymbolTableRecord
100
AcDbBlockTableRecord
2
*PAPER_SPACE
0
ENDTAB
0
ENDSEC
0
SECTION
2
BLOCKS
0
BLOCK
5
20
100
AcDbEntity
100
AcDbBlockBegin
2
*MODEL_SPACE
0
ENDBLK
5
21
100
AcDbEntity
100
AcDbBlockEnd
0
BLOCK
5
1C
100
AcDbEntity
100
AcDbBlockBegin
2
*PAPER_SPACE
0
ENDBLK
5
1D
100
AcDbEntity
100
AcDbBlockEnd
0
ENDSEC
0
SECTION
2
ENTITIES
0
LWPOLYLINE
5
100
100
AcDbEntity
8
0
100
AcDbPolyline
90
233
70
1
43
0.0
10
1.2499999999999984
20
-3.9507874015748041
10
1.0959645669291322
20
-3.9507874015748041
10
1.0959645669291322
20
-3.9015748031496074
10
1.0172244094488174
20
-3.9015748031496074
10
1.0172244094488174
20
-3.9507874015748041
10
0.86318897637795122
20
-3.9507874015748041
10
0.86318897637795122
20
-4.0492125984251981
10
1.0172244094488174
20
-4.0492125984251981
10
1.0172244094488174
20
-4.0984251968503944
10
1.0959645669291322
20
-4.0984251968503944
10
1.0959645669291322
20
-4.0492125984251981
10
1.2499999999999984
20
-4.0492125984251981
10
1.2499999999999987
20
-4.5714285714285721
10
1.3749999999999984
20
-4.5714285714285721
10
1.3749999999999984
20
-5.7142857142857144
10
1.2499999999999987
20
-5.7142857142857144
10
1.2499999999999984
20
-6.2365016872890893
10
1.0959645669291322
20
-6.2365016872890893
10
1.0959645669291322
20
-6.1872890888638921
10
1.0172244094488174
20
-6.1872890888638921
10
1.0172244094488174
20
-6.2365016872890893
10
0.86318897637795122
20
-6.2365016872890893
10
0.86318897637795122
20
-6.3349268841394819
10
1.0172244094488174
20
-6.3349268841394819
10
1.0172244094488174
20
-6.3841394825646782
10
1.0959645669291322
20
-6.3841394825646782
10
1.0959645669291322
20
-6.3349268841394819
10
1.2499999999999984
20
-6.3349268841394819
10
1.2499999999999987
20
-6.8571428571428559
10
1.3749999999999984
20
-6.8571428571428559
10
1.3749999999999984
20
-7.9999999999999991
10
0.67421259842519554
20
-7.9999999999999991
10
0.67421259842519554
20
-7.8459645669291334
10
0.72342519685039242
20
-7.8459645669291334
10
0.72342519685039242
20
-7.7672244094488176
10
0.67421259842519554
20
-7.7672244094488176
10
0.67421259842519554
20
-7.6131889763779519
10
0.57578740157480179
20
-7.6131889763779519
10
0.57578740157480179
20
-7.7672244094488176
10
0.52657480314960503
20
-7.7672244094488176
10
0.52657480314960503
20
-7.8459645669291334
10
0.57578740157480179
20
-7.8459645669291334
10
0.57578740157480179
20
-7.9999999999999991
10
-0.125000000000001
20
-7.9999999999999991
10
-0.125000000000001
20
-8.1249999999999982
10
-1.6250000000000004
20
-8.1249999999999982
10
-1.6250000000000004
20
-7.9999999999999991
10
-2.3257874015748032
20
-7.9999999999999991
10
-2.3257874015748032
20
-7.8459645669291334
10
-2.2765748031496065
20
-7.8459645669291334
10
-2.2765748031496065
20
-7.7672244094488176
10
-2.3257874015748032
20
-7.7672244094488176
10
-2.3257874015748032
20
-7.6131889763779519
10
-2.4242125984251968
20
-7.6131889763779519
10
-2.4242125984251968
20
-7.7672244094488176
10
-2.4734251968503935
20
-7.7672244094488176
10
-2.4734251968503935
20
-7.8459645669291334
10
-2.4242125984251968
20
-7.8459645669291334
10
-2.4242125984251968
20
-7.9999999999999991
10
-3.1249999999999996
20
-7.9999999999999991
10
-3.1249999999999996
20
-8.1249999999999982
10
-4.6249999999999982
20
-8.1249999999999982
10
-4.6249999999999982
20
-7.9999999999999991
10
-5.3257874015748019
20
-7.9999999999999991
10
-5.3257874015748019
20
-7.8459645669291334
10
-5.2765748031496047
20
-7.8459645669291334
10
-5.2765748031496047
20
-7.7672244094488176
10
-5.3257874015748019
20
-7.7672244094488176
10
-5.3257874015748019
20
-7.6131889763779519
10
-5.4242125984251954
20
-7.6131889763779519
10
-5.4242125984251954
20
-7.7672244094488176
10
-5.4734251968503926
20
-7.7672244094488176
10
-5.4734251968503926
20
-7.8459645669291334
10
-5.4242125984251954
20
-7.8459645669291334
10
-5.4242125984251954
20
-7.9999999999999991
10
-6.1249999999999991
20
-7.9999999999999991
10
-6.1249999999999991
20
-8.1249999999999982
10
-7.6249999999999964
20
-8.1249999999999982
10
-7.6249999999999964
20
-7.9999999999999991
10
-8.3257874015748001
20
-7.9999999999999991
10
-8.3257874015748001
20
-7.8459645669291334
10
-8.2765748031496038
20
-7.8459645669291334
10
-8.2765748031496038
20
-7.7672244094488176
10
-8.3257874015748001
20
-7.7672244094488176
10
-8.3257874015748001
20
-7.6131889763779519
10
-8.4242125984251945
20
-7.6131889763779519
10
-8.4242125984251945
20
-7.7672244094488176
10
-8.4734251968503909
20
-7.7672244094488176
10
-8.4734251968503909
20
-7.8459645669291334
10
-8.4242125984251945
20
-7.8459645669291334
10
-8.4242125984251945
20
-7.9999999999999991
10
-9.1249999999999964
20
-7.9999999999999991
10
-9.1249999999999964
20
-8.1249999999999982
10
-10.624999999999998
20
-8.1249999999999982
10
-10.624999999999995
20
-7.5849268841394819
10
-10.47096456692913
20
-7.5849268841394819
10
-10.47096456692913
20
-7.6341394825646782
10
-10.392224409448817
20
-7.6341394825646782
10
-10.392224409448817
20
-7.5849268841394819
10
-10.238188976377947
20
-7.5849268841394819
10
-10.238188976377947
20
-7.4865016872890884
10
-10.392224409448817
20
-7.4865016872890884
10
-10.392224409448817
20
-7.4372890888638912
10
-10.47096456692913
20
-7.4372890888638912
10
-10.47096456692913
20
-7.4865016872890884
10
-10.624999999999995
20
-7.4865016872890884
10
-10.624999999999995
20
-6.9464285714285703
10
-10.749999999999996
20
-6.9464285714285703
10
-10.749999999999996
20
-5.7678571428571423
10
-10.624999999999995
20
-5.7678571428571423
10
-10.624999999999998
20
-5.2277840269966251
10
-10.47096456692913
20
-5.2277840269966251
10
-10.47096456692913
20
-5.2769966254218215
10
-10.392224409448817
20
-5.2769966254218215
10
-10.392224409448817
20
-5.2277840269966251
10
-10.238188976377947
20
-5.2277840269966251
10
-10.238188976377947
20
-5.1293588301462316
10
-10.392224409448817
20
-5.1293588301462316
10
-10.392224409448817
20
-5.0801462317210344
10
-10.47096456692913
20
-5.0801462317210344
10
-10.47096456692913
20
-5.1293588301462316
10
-10.624999999999995
20
-5.1293588301462316
10
-10.624999999999995
20
-4.5892857142857135
10
-10.749999999999996
20
-4.5892857142857135
10
-10.749999999999996
20
-3.4107142857142856
10
-10.624999999999995
20
-3.4107142857142856
10
-10.624999999999998
20
-2.8706411698537684
10
-10.47096456692913
20
-2.8706411698537684
10
-10.47096456692913
20
-2.9198537682789651
10
-10.392224409448817
20
-2.9198537682789651
10
-10.392224409448817
20
-2.8706411698537684
10
-10.238188976377947
20
-2.8706411698537684
10
-10.238188976377947
20
-2.7722159730033744
10
-10.392224409448817
20
-2.7722159730033744
10
-10.392224409448817
20
-2.7230033745781776
10
-10.47096456692913
20
-2.7230033745781776
10
-10.47096456692913
20
-2.7722159730033744
10
-10.624999999999995
20
-2.7722159730033744
10
-10.624999999999995
20
-2.2321428571428572
10
-10.749999999999996
20
-2.2321428571428572
10
-10.749999999999996
20
-1.0535714285714288
10
-10.624999999999995
20
-1.0535714285714288
10
-10.624999999999998
20
-0.5134983127109114
10
-10.47096456692913
20
-0.5134983127109114
10
-10.47096456692913
20
-0.56271091113610827
10
-10.392224409448817
20
-0.56271091113610827
10
-10.392224409448817
20
-0.5134983127109114
10
-10.238188976377947
20
-0.5134983127109114
10
-10.238188976377947
20
-0.41507311586051776
10
-10.392224409448817
20
-0.41507311586051776
10
-10.392224409448817
20
-0.36586051743532089
10
-10.47096456692913
20
-0.36586051743532089
10
-10.47096456692913
20
-0.41507311586051776
10
-10.624999999999995
20
-0.41507311586051776
10
-10.624999999999998
20
0.1249999999999996
10
-9.1249999999999964
20
0.1249999999999996
10
-9.1249999999999964
20
-3.4967654318902565e-16
10
-8.4242125984251945
20
-3.9338611108765388e-16
10
-8.4242125984251945
20
-0.15403543307086656
10
-8.4734251968503909
20
-0.15403543307086656
10
-8.4734251968503909
20
-0.23277559055118147
10
-8.4242125984251945
20
-0.23277559055118147
10
-8.4242125984251945
20
-0.38681102362204761
10
-8.3257874015748001
20
-0.38681102362204761
10
-8.3257874015748001
20
-0.23277559055118147
10
-8.2765748031496038
20
-0.23277559055118147
10
-8.2765748031496038
20
-0.15403543307086656
10
-8.3257874015748001
20
-0.15403543307086656
10
-8.3257874015748001
20
-3.9338611108765388e-16
10
-7.6249999999999964
20
-3.4967654318902565e-16
10
-7.6249999999999964
20
0.1249999999999996
10
-6.1249999999999991
20
0.1249999999999996
10
-6.1249999999999991
20
-3.4967654318902565e-16
10
-5.4242125984251954
20
-3.9338611108765388e-16
10
-5.4242125984251954
20
-0.15403543307086651
10
-5.4734251968503926
20
-0.15403543307086651
10
-5.4734251968503926
20
-0.23277559055118147
10
-5.4242125984251954
20
-0.23277559055118147
10
-5.4242125984251954
20
-0.38681102362204756
10
-5.3257874015748019
20
-0.38681102362204756
10
-5.3257874015748019
20
-0.23277559055118147
10
-5.2765748031496047
20
-0.23277559055118147
10
-5.2765748031496047
20
-0.15403543307086651
10
-5.3257874015748019
20
-0.15403543307086651
10
-5.3257874015748019
20
-3.9338611108765388e-16
10
-4.6249999999999982
20
-3.4967654318902565e-16
10
-4.6249999999999982
20
0.1249999999999996
10
-3.1249999999999996
20
0.1249999999999996
10
-3.1249999999999996
20
-3.4967654318902565e-16
10
-2.4242125984251968
20
-3.9338611108765388e-16
10
-2.4242125984251968
20
-0.15403543307086598
10
-2.4734251968503935
20
-0.15403543307086598
10
-2.4734251968503935
20
-0.23277559055118094
10
-2.412714370726893
20
-0.23277559055118058
42
30.93202355299821
10
-2.2765748031496065
20
-0.16388887903344151
10
-2.2765748031496065
20
-0.15403543307086598
10
-2.3257874015748032
20
-0.15403543307086598
10
-2.3257874015748032
20
-3.9338611108765388e-16
10
-1.6250000000000004
20
-3.4967654318902565e-16
10
-1.6250000000000004
20
0.1249999999999996
10
-0.125000000000001
20
0.1249999999999996
10
-0.125000000000001
20
-3.4967654318902565e-16
10
0.57578740157480179
20
-3.9338611108765388e-16
10
0.57578740157480179
20
-0.15403543307086709
10
0.52657480314960503
20
-0.15403543307086709
10
0.52657480314960503
20
-0.23277559055118202
10
0.57578740157480179
20
-0.23277559055118202
10
0.57578740157480179
20
-0.38681102362204817
10
0.67421259842519554
20
-0.38681102362204817
10
0.67421259842519554
20
-0.23277559055118202
10
0.72342519685039242
20
-0.23277559055118202
10
0.72342519685039242
20
-0.15403543307086709
10
0.67421259842519554
20
-0.15403543307086709
10
0.67421259842519554
20
-9.288283178458493e-16
10
1.3749999999999984
20
-1.3987061727561026e-15
10
1.3749999999999984
20
-1.1428571428571446
10
1.2499999999999987
20
-1.1428571428571446
10
1.2499999999999984
20
-1.665073115860519
10
1.0959645669291322
20
-1.665073115860519
10
1.0959645669291322
20
-1.6158605174353222
10
1.0172244094488174
20
-1.6158605174353222
10
1.0172244094488174
20
-1.665073115860519
10
0.86318897637795122
20
-1.665073115860519
10
0.86318897637795122
20
-1.7634983127109127
10
1.0172244094488174
20
-1.7634983127109127
10
1.0172244094488174
20
-1.8127109111361095
10
1.0959645669291322
20
-1.8127109111361095
10
1.0959645669291322
20
-1.7634983127109127
10
1.2499999999999984
20
-1.7634983127109127
10
1.2499999999999987
20
-2.2857142857142869
10
1.3749999999999984
20
-2.2857142857142869
10
1.3749999999999984
20
-3.4285714285714297
10
1.2499999999999987
20
-3.4285714285714297
0
LWPOLYLINE
5
101
100
AcDbEntity
8
0
100
AcDbPolyline
90
4
70
1
43
0.0
10
-7.4045056791739219
20
-0.49999999999999978
10
-7.4045056791739219
20
-3.9999999999999996
10
-6.1545056791739237
20
-3.9999999999999996
10
-6.1545056791739237
20
-0.49999999999999989
0
ENDSEC
0
SECTION
2
OBJECTS
0
DICTIONARY
5
C
100
AcDbDictionary
3
ACAD_GROUP
350
D
3
ACAD_MLINESTYLE
350
17
0
DICTIONARY
5
D
100
AcDbDictionary
0
DICTIONARY
5
1A
330
C
100
AcDbDictionary
0
DICTIONARY
5
17
100
AcDbDictionary
0
ENDSEC
0
EOF
