0
SECTION
2
HEADER
9
$INSUNITS
70
1
9
$ACADVER
1
AC1014
9
$HANDSEED
5
FFFF
0
ENDSEC
0
SECTION
2
TABLES
0
TABLE
2
VPORT
5
8
100
AcDbSymbolTable
0
ENDTAB
0
TABLE
2
LTYPE
5
5
100
AcDbSymbolTable
0
LTYPE
5
14
100
AcDbSymbolTableRecord
100
AcDbLinetypeTableRecord
2
BYBLOCK
70
0
0
LTYPE
5
15
100
AcDbSymbolTableRecord
100
AcDbLinetypeTableRecord
2
BYLAYER
70
0
0
ENDTAB
0
TABLE
2
LAYER
5
2
100
AcDbSymbolTable
70
2
0
LAYER
5
50
100
AcDbSymbolTableRecord
100
AcDbLayerTableRecord
2
0
70
0
6
CONTINUOUS
0
ENDTAB
0
TABLE
2
STYLE
5
3
100
AcDbSymbolTable
70
1
0
STYLE
5
11
100
AcDbSymbolTableRecord
100
AcDbTextStyleTableRecord
2
STANDARD
70
0
0
ENDTAB
0
TABLE
2
VIEW
5
6
100
AcDbSymbolTable
70
0
0
ENDTAB
0
TABLE
2
UCS
5
7
100
AcDbSymbolTable
70
0
0
ENDTAB
0
TABLE
2
APPID
5
9
100
AcDbSymbolTable
70
2
0
APPID
5
12
100
AcDbSymbolTableRecord
100
AcDbRegAppTableRecord
2
ACAD
70
0
0
ENDTAB
0
TABLE
2
DIMSTYLE
5
A
100
AcDbSymbolTable
70
1
0
ENDTAB
0
TABLE
2
BLOCK_RECORD
5
1
100
AcDbSymbolTable
70
1
0
BLOCK_RECORD
5
1F
100
AcDbSymbolTableRecord
100
AcDbBlockTableRecord
2
*MODEL_SPACE
0
BLOCK_RECORD
5
1B
100
AcDbSymbolTableRecord
100
AcDbBlockTableRecord
2
*PAPER_SPACE
0
ENDTAB
0
ENDSEC
0
SECTION
2
BLOCKS
0
BLOCK
5
20
100
AcDbEntity
100
AcDbBlockBegin
2
*MODEL_SPACE
0
ENDBLK
5
21
100
AcDbEntity
100
AcDbBlockEnd
0
BLOCK
5
1C
100
AcDbEntity
100
AcDbBlockBegin
2
*PAPER_SPACE
0
ENDBLK
5
1D
100
AcDbEntity
100
AcDbBlockEnd
0
ENDSEC
0
SECTION
2
ENTITIES
0
CIRCLE
5
100
100
AcDbEntity
8
0
100
AcDbCircle
10
8.0624999999999982
20
0.25625000000000037
30
0
40
0.049212598425196846
0
CIRCLE
5
101
100
AcDbEntity
8
0
100
AcDbCircle
10
5.1785714285714279
20
-3.1874999999999996
30
0
40
0.049212598425196846
0
CIRCLE
5
102
100
AcDbEntity
8
0
100
AcDbCircle
10
-0.062499999999999604
20
-1.4523273333333329
30
0
40
0.049212598425196818
0
CIRCLE
5
103
100
AcDbEntity
8
0
100
AcDbCircle
10
-0.062499999999999604
20
-2.8958333333333326
30
0
40
0.049212598425197013
0
CIRCLE
5
104
100
AcDbEntity
8
0
100
AcDbCircle
10
7.5357142857142847
20
-3.1874999999999996
30
0
40
0.049212598425196846
0
CIRCLE
5
105
100
AcDbEntity
8
0
100
AcDbCircle
10
5.9662509833283304
20
-1.0616703036894963
30
0
40
0.049212598425196846
0
CIRCLE
5
106
100
AcDbEntity
8
0
100
AcDbCircle
10
8.0624999999999982
20
-1.4523273450547898
30
0
40
0.049212598425196846
0
CIRCLE
5
107
100
AcDbEntity
8
0
100
AcDbCircle
10
2.8214285714285712
20
-3.1874999999999996
30
0
40
0.049212598425196846
0
CIRCLE
5
108
100
AcDbEntity
8
0
100
AcDbCircle
10
-0.062499999999999604
20
0.25625000000000037
30
0
40
0.049212598425196839
0
CIRCLE
5
109
100
AcDbEntity
8
0
100
AcDbCircle
10
0.46428571428571458
20
-3.1874999999999996
30
0
40
0.049212598425196756
0
CIRCLE
5
110
100
AcDbEntity
8
0
100
AcDbCircle
10
8.0624999999999982
20
-2.8958333333333326
30
0
40
0.049212598425196846
0
CIRCLE
5
111
100
AcDbEntity
8
0
100
AcDbCircle
10
2.0339879724901326
20
-1.0614556214505062
30
0
40
0.049212598425196846
0
LWPOLYLINE
5
112
100
AcDbEntity
8
0
100
AcDbPolyline
90
44
70
1
43
0.0
10
6.9464285714285703
20
-3.2499999999999996
10
6.9464285714285703
20
-3.1249999999999996
10
5.7678571428571423
20
-3.1249999999999996
10
5.7678571428571423
20
-3.2499999999999996
10
4.5892857142857135
20
-3.2499999999999996
10
4.5892857142857135
20
-3.1249999999999996
10
3.4107142857142856
20
-3.1249999999999996
10
3.4107142857142856
20
-3.2499999999999996
10
2.2321428571428572
20
-3.2499999999999996
10
2.2321428571428572
20
-3.1249999999999996
10
1.0535714285714288
20
-3.1249999999999996
10
1.0535714285714288
20
-3.2499999999999996
10
-0.1249999999999996
20
-3.2499999999999996
10
-0.1249999999999996
20
-2.5416666666666661
10
3.9569816040527185e-16
20
-2.5416666666666661
10
3.9338611108765388e-16
20
-1.833333333333333
10
-0.1249999999999996
20
-1.833333333333333
10
-0.1249999999999996
20
-1.1249999999999998
10
1.1428571428571446
20
-1.1249999999999998
10
1.1428571428571446
20
-1.0000000000000002
10
1.3987061727561026e-15
20
-1.0000000000000002
10
0
20
-0.16250000000000031
10
-0.1249999999999996
20
-0.16250000000000031
10
-0.1249999999999996
20
0.6749999999999996
10
1.652214285714287
20
0.6749999999999996
10
1.6522142857142863
20
-0.16250000000000031
10
1.7772142857142859
20
-0.16250000000000031
10
1.7772142857142852
20
0.6749999999999996
10
6.2232142857142856
20
0.6749999999999996
10
6.2232142857142856
20
-0.16250000000000031
10
6.3482142857142856
20
-0.16250000000000031
10
6.3482142857142856
20
0.6749999999999996
10
8.1249999999999982
20
0.6749999999999996
10
8.1249999999999982
20
-0.16250000000000031
10
7.9999999999999991
20
-0.16250000000000031
10
7.9999999999999991
20
-1.0000000000000002
10
6.8571428571428559
20
-1.0000000000000002
10
6.8571428571428559
20
-1.1249999999999998
10
8.1249999999999982
20
-1.1249999999999998
10
8.1249999999999982
20
-1.833333333333333
10
7.9999999999999991
20
-1.833333333333333
10
7.9999999999999991
20
-2.5416666666666661
10
8.1249999999999982
20
-2.5416666666666661
10
8.1249999999999982
20
-3.2499999999999996
0
LWPOLYLINE
5
113
100
AcDbEntity
8
0
100
AcDbPolyline
90
8
70
1
43
0.0
10
3.3498008518381535
20
-1.6002246698690934
10
1.3898008518381513
20
-1.6002246698690934
42
0.41421356237309453
10
1.2898008518381516
20
-1.7002246698690939
10
1.2898008518381516
20
-2.6502246698690941
42
0.41421356237309453
10
1.3898008518381519
20
-2.7502246698690942
10
3.3498008518381526
20
-2.7502246698690942
42
0.41421356237309093
10
3.4498008518381527
20
-2.6502246698690946
10
3.4498008518381527
20
-1.7002246698690942
42
0.41421356237309503
0
CIRCLE
5
114
100
AcDbEntity
8
0
100
AcDbCircle
10
2.3928571240840268
20
-1.4000984251968498
30
0
40
0.088582677165354534
0
CIRCLE
5
115
100
AcDbEntity
8
0
100
AcDbCircle
10
2.3928571240840268
20
-2.97490157480315
30
0
40
0.088582677165354534
0
LWPOLYLINE
5
116
100
AcDbEntity
8
0
100
AcDbPolyline
90
4
70
1
43
0.0
10
2.2857142857142869
20
-1.1249999999999998
10
2.4999999624537668
20
-1.1249999999999998
10
2.4999999624537668
20
-1.0000000000000002
10
2.2857142857142869
20
-1.0000000000000002
0
LWPOLYLINE
5
117
100
AcDbEntity
8
0
100
AcDbPolyline
90
4
70
1
43
0.0
10
5.499999917398287
20
-1.1249999999999998
10
5.7142857142857144
20
-1.1249999999999998
10
5.7142857142857144
20
-1.0000000000000002
10
5.499999917398287
20
-1.0000000000000002
0
ENDSEC
0
SECTION
2
OBJECTS
0
DICTIONARY
5
C
100
AcDbDictionary
3
ACAD_GROUP
350
D
3
ACAD_MLINESTYLE
350
17
0
DICTIONARY
5
D
100
AcDbDictionary
0
DICTIONARY
5
1A
330
C
100
AcDbDictionary
0
DICTIONARY
5
17
100
AcDbDictionary
0
ENDSEC
0
EOF
