0
SECTION
2
HEADER
9
$INSUNITS
70
1
9
$ACADVER
1
AC1014
9
$HANDSEED
5
FFFF
0
ENDSEC
0
SECTION
2
TABLES
0
TABLE
2
VPORT
5
8
100
AcDbSymbolTable
0
ENDTAB
0
TABLE
2
LTYPE
5
5
100
AcDbSymbolTable
0
LTYPE
5
14
100
AcDbSymbolTableRecord
100
AcDbLinetypeTableRecord
2
BYBLOCK
70
0
0
LTYPE
5
15
100
AcDbSymbolTableRecord
100
AcDbLinetypeTableRecord
2
BYLAYER
70
0
0
ENDTAB
0
TABLE
2
LAYER
5
2
100
AcDbSymbolTable
70
2
0
LAYER
5
50
100
AcDbSymbolTableRecord
100
AcDbLayerTableRecord
2
0
70
0
6
CONTINUOUS
0
ENDTAB
0
TABLE
2
STYLE
5
3
100
AcDbSymbolTable
70
1
0
STYLE
5
11
100
AcDbSymbolTableRecord
100
AcDbTextStyleTableRecord
2
STANDARD
70
0
0
ENDTAB
0
TABLE
2
VIEW
5
6
100
AcDbSymbolTable
70
0
0
ENDTAB
0
TABLE
2
UCS
5
7
100
AcDbSymbolTable
70
0
0
ENDTAB
0
TABLE
2
APPID
5
9
100
AcDbSymbolTable
70
2
0
APPID
5
12
100
AcDbSymbolTableRecord
100
AcDbRegAppTableRecord
2
ACAD
70
0
0
ENDTAB
0
TABLE
2
DIMSTYLE
5
A
100
AcDbSymbolTable
70
1
0
ENDTAB
0
TABLE
2
BLOCK_RECORD
5
1
100
AcDbSymbolTable
70
1
0
BLOCK_RECORD
5
1F
100
AcDbSymbolTableRecord
100
AcDbBlockTableRecord
2
*MODEL_SPACE
0
BLOCK_RECORD
5
1B
100
AcDbSymbolTableRecord
100
AcDbBlockTableRecord
2
*PAPER_SPACE
0
ENDTAB
0
ENDSEC
0
SECTION
2
BLOCKS
0
BLOCK
5
20
100
AcDbEntity
100
AcDbBlockBegin
2
*MODEL_SPACE
0
ENDBLK
5
21
100
AcDbEntity
100
AcDbBlockEnd
0
BLOCK
5
1C
100
AcDbEntity
100
AcDbBlockBegin
2
*PAPER_SPACE
0
ENDBLK
5
1D
100
AcDbEntity
100
AcDbBlockEnd
0
ENDSEC
0
SECTION
2
ENTITIES
0
LWPOLYLINE
5
100
100
AcDbEntity
8
0
100
AcDbPolyline
90
46
70
1
43
0.0
10
-8.2392857063071396
20
0.17499999999999793
10
-8.2392857063071396
20
0.67499999999999793
10
-8.3642857063071396
20
0.67499999999999793
10
-8.3642857063071414
20
1.174999999999996
10
-8.2392857063071396
20
1.174999999999996
10
-8.2392857063071396
20
1.55
10
-8.2397142936928578
20
1.55
10
-8.2397142936928578
20
1.6749999999999998
10
-6.5439142936928567
20
1.6749999999999998
10
-6.5439142936928567
20
1.55
10
-5.7452268921180547
20
1.55
10
-5.7452268921180547
20
1.3959645669291338
10
-5.7944394905432519
20
1.3959645669291338
10
-5.7944394905432519
20
1.3172244094488188
10
-5.7452268921180547
20
1.3172244094488188
10
-5.7452268921180547
20
1.1631889763779528
10
-5.6468016952676612
20
1.1631889763779528
10
-5.6468016952676612
20
1.3172244094488188
10
-5.597589096842464
20
1.3172244094488188
10
-5.597589096842464
20
1.3959645669291338
10
-5.6468016952676612
20
1.3959645669291338
10
-5.6468016952676612
20
1.55
10
-4.8481142936928574
20
1.55
10
-4.8481142936928574
20
1.6749999999999998
10
-3.1523142936928581
20
1.6749999999999998
10
-3.1523142936928581
20
1.55
10
-2.3536268921180561
20
1.55
10
-2.3536268921180561
20
1.3959645669291338
10
-2.4028394905432529
20
1.3959645669291338
10
-2.4028394905432529
20
1.3172244094488188
10
-2.3536268921180561
20
1.3172244094488188
10
-2.3536268921180561
20
1.1631889763779528
10
-2.2552016952676626
20
1.1631889763779528
10
-2.2552016952676626
20
1.3172244094488188
10
-2.2059890968424654
20
1.3172244094488188
10
-2.2059890968424654
20
1.3959645669291338
10
-2.2552016952676626
20
1.3959645669291338
10
-2.2552016952676626
20
1.55
10
-1.4565142936928588
20
1.55
10
-1.4565142936928588
20
1.6749999999999998
10
0.23928570630714061
20
1.6749999999999998
10
0.23928570630714061
20
1.175
10
0.36428570630714019
20
1.175
10
0.36428570630714019
20
0.67500000000000193
10
0.23928570630714061
20
0.67500000000000193
10
0.23928570630714061
20
0.17500000000000196
0
CIRCLE
5
101
100
AcDbEntity
8
0
100
AcDbCircle
10
0.30178570630714041
20
0.92500000000000093
30
0
40
0.049212598425196805
0
CIRCLE
5
102
100
AcDbEntity
8
0
100
AcDbCircle
10
-8.3017857063071396
20
0.92499999999999694
30
0
40
0.049212598425196846
0
ENDSEC
0
SECTION
2
OBJECTS
0
DICTIONARY
5
C
100
AcDbDictionary
3
ACAD_GROUP
350
D
3
ACAD_MLINESTYLE
350
17
0
DICTIONARY
5
D
100
AcDbDictionary
0
DICTIONARY
5
1A
330
C
100
AcDbDictionary
0
DICTIONARY
5
17
100
AcDbDictionary
0
ENDSEC
0
EOF
