0
SECTION
2
HEADER
9
$INSUNITS
70
1
9
$ACADVER
1
AC1014
9
$HANDSEED
5
FFFF
0
ENDSEC
0
SECTION
2
TABLES
0
TABLE
2
VPORT
5
8
100
AcDbSymbolTable
0
ENDTAB
0
TABLE
2
LTYPE
5
5
100
AcDbSymbolTable
0
LTYPE
5
14
100
AcDbSymbolTableRecord
100
AcDbLinetypeTableRecord
2
BYBLOCK
70
0
0
LTYPE
5
15
100
AcDbSymbolTableRecord
100
AcDbLinetypeTableRecord
2
BYLAYER
70
0
0
ENDTAB
0
TABLE
2
LAYER
5
2
100
AcDbSymbolTable
70
2
0
LAYER
5
50
100
AcDbSymbolTableRecord
100
AcDbLayerTableRecord
2
0
70
0
6
CONTINUOUS
0
ENDTAB
0
TABLE
2
STYLE
5
3
100
AcDbSymbolTable
70
1
0
STYLE
5
11
100
AcDbSymbolTableRecord
100
AcDbTextStyleTableRecord
2
STANDARD
70
0
0
ENDTAB
0
TABLE
2
VIEW
5
6
100
AcDbSymbolTable
70
0
0
ENDTAB
0
TABLE
2
UCS
5
7
100
AcDbSymbolTable
70
0
0
ENDTAB
0
TABLE
2
APPID
5
9
100
AcDbSymbolTable
70
2
0
APPID
5
12
100
AcDbSymbolTableRecord
100
AcDbRegAppTableRecord
2
ACAD
70
0
0
ENDTAB
0
TABLE
2
DIMSTYLE
5
A
100
AcDbSymbolTable
70
1
0
ENDTAB
0
TABLE
2
BLOCK_RECORD
5
1
100
AcDbSymbolTable
70
1
0
BLOCK_RECORD
5
1F
100
AcDbSymbolTableRecord
100
AcDbBlockTableRecord
2
*MODEL_SPACE
0
BLOCK_RECORD
5
1B
100
AcDbSymbolTableRecord
100
AcDbBlockTableRecord
2
*PAPER_SPACE
0
ENDTAB
0
ENDSEC
0
SECTION
2
BLOCKS
0
BLOCK
5
20
100
AcDbEntity
100
AcDbBlockBegin
2
*MODEL_SPACE
0
ENDBLK
5
21
100
AcDbEntity
100
AcDbBlockEnd
0
BLOCK
5
1C
100
AcDbEntity
100
AcDbBlockBegin
2
*PAPER_SPACE
0
ENDBLK
5
1D
100
AcDbEntity
100
AcDbBlockEnd
0
ENDSEC
0
SECTION
2
ENTITIES
0
LWPOLYLINE
5
100
100
AcDbEntity
8
0
100
AcDbPolyline
90
196
70
1
43
0.0
10
-0.1540354330708659
20
-4.0492125984251963
10
6.9935308637805131e-16
20
-4.0492125984251963
10
6.9935308637805131e-16
20
-4.5714285714285712
10
0.125000000000001
20
-4.5714285714285712
10
0.125000000000001
20
-5.7142857142857144
10
6.9935308637805131e-16
20
-5.7142857142857144
10
6.9935308637805131e-16
20
-6.2365016872890893
10
-0.15403543307086906
20
-6.2365016872890893
10
-0.15403543307086906
20
-6.1872890888638921
10
-0.23277559055118408
20
-6.1872890888638921
10
-0.23277559055118408
20
-6.2365016872890884
10
-0.3868110236220465
20
-6.2365016872890884
10
-0.3868110236220465
20
-6.3349268841394828
10
-0.23277559055118408
20
-6.3349268841394828
10
-0.23277559055118408
20
-6.38413948256468
10
-0.15403543307086906
20
-6.38413948256468
10
-0.15403543307086906
20
-6.3349268841394819
10
6.9935308637805131e-16
20
-6.3349268841394819
10
6.9935308637805131e-16
20
-6.8571428571428559
10
0.125000000000001
20
-6.8571428571428559
10
0.125000000000001
20
-8.1249999999999982
10
-1.2343749999999989
20
-8.1249999999999982
10
-1.2343749999999989
20
-7.9999999999999991
10
-1.8648499015748021
20
-7.9999999999999991
10
-1.8648499015748021
20
-7.8459645669291325
10
-1.8156373031496031
20
-7.8459645669291325
10
-1.8156373031496031
20
-7.7672244094488176
10
-1.8648499015748028
20
-7.7672244094488176
10
-1.8648499015748028
20
-7.6131889763779519
10
-1.9632750984251959
20
-7.6131889763779519
10
-1.9632750984251959
20
-7.7672244094488176
10
-2.0124876968503904
20
-7.7672244094488176
10
-2.0124876968503904
20
-7.8459645669291325
10
-1.9632750984251959
20
-7.8459645669291325
10
-1.9632750984251959
20
-7.9999999999999991
10
-2.5937499999999991
20
-7.9999999999999991
10
-2.5937499999999991
20
-8.1249999999999982
10
-3.9531249999999996
20
-8.1249999999999982
10
-3.9531249999999996
20
-7.9999999999999991
10
-4.583599901574801
20
-7.9999999999999991
10
-4.583599901574801
20
-7.8459645669291334
10
-4.5343873031496074
20
-7.8459645669291334
10
-4.5343873031496074
20
-7.7672244094488185
10
-4.5835999015748028
20
-7.7672244094488185
10
-4.5835999015748028
20
-7.6131889763779519
10
-4.6820250984251963
20
-7.6131889763779519
10
-4.6820250984251963
20
-7.7672244094488185
10
-4.7312376968503944
20
-7.7672244094488185
10
-4.7312376968503944
20
-7.8459645669291334
10
-4.6820250984251954
20
-7.8459645669291334
10
-4.6820250984251954
20
-7.9999999999999991
10
-5.3125
20
-7.9999999999999991
10
-5.3125
20
-8.1249999999999982
10
-6.6718749999999991
20
-8.1249999999999982
10
-6.6718749999999991
20
-7.9999999999999991
10
-7.302349901574801
20
-7.9999999999999991
10
-7.302349901574801
20
-7.8459645669291307
10
-7.2531373031496038
20
-7.8459645669291307
10
-7.2531373031496038
20
-7.7672244094488159
10
-7.3023499015747984
20
-7.7672244094488159
10
-7.3023499015747984
20
-7.6131889763779519
10
-7.4007750984251945
20
-7.6131889763779519
10
-7.4007750984251945
20
-7.7672244094488159
10
-7.4499876968503909
20
-7.7672244094488159
10
-7.4499876968503909
20
-7.8459645669291307
10
-7.4007750984251945
20
-7.8459645669291307
10
-7.4007750984251945
20
-7.9999999999999991
10
-8.0312499999999964
20
-7.9999999999999991
10
-8.0312499999999964
20
-8.1249999999999982
10
-9.3906249999999982
20
-8.1249999999999982
10
-9.3906249999999982
20
-7.9999999999999991
10
-10.749999999999996
20
-7.9999999999999991
10
-10.749999999999996
20
-6.8571428571428559
10
-10.624999999999998
20
-6.8571428571428559
10
-10.624999999999998
20
-6.3482142857142856
10
-9.9999999999999964
20
-6.3482142857142856
10
-9.9999999999999964
20
-6.2232142857142856
10
-10.624999999999998
20
-6.2232142857142856
10
-10.624999999999998
20
-6.0179625984251972
10
-10.470964566929132
20
-6.0179625984251972
10
-10.470964566929132
20
-6.0671751968503926
10
-10.392224409448817
20
-6.0671751968503926
10
-10.392224409448817
20
-6.0179625984251963
10
-10.23818897637795
20
-6.0179625984251963
10
-10.23818897637795
20
-5.9195374015748028
10
-10.392224409448817
20
-5.9195374015748028
10
-10.392224409448817
20
-5.8703248031496056
10
-10.470964566929132
20
-5.8703248031496056
10
-10.470964566929132
20
-5.9195374015748028
10
-10.624999999999998
20
-5.9195374015748028
10
-10.624999999999998
20
-5.7142857142857144
10
-10.749999999999996
20
-5.7142857142857144
10
-10.749999999999996
20
-5.499999917398287
10
-8.9999998648335602
20
-5.499999917398287
10
-8.9999998648335602
20
-2.4999999624537668
10
-10.749999999999996
20
-2.4999999624537668
10
-10.749999999999996
20
-2.2857142857142869
10
-10.624999999999998
20
-2.2857142857142869
10
-10.624999999999998
20
-2.0806768841394834
10
-10.470964566929135
20
-2.0806768841394834
10
-10.470964566929135
20
-2.1298894825646801
10
-10.392224409448819
20
-2.1298894825646801
10
-10.392224409448819
20
-2.0806768841394829
10
-10.23818897637795
20
-2.0806768841394829
10
-10.23818897637795
20
-1.9822516872890894
10
-10.392224409448819
20
-1.9822516872890894
10
-10.392224409448819
20
-1.9330390888638929
10
-10.470964566929135
20
-1.9330390888638929
10
-10.470964566929135
20
-1.9822516872890896
10
-10.624999999999998
20
-1.9822516872890896
10
-10.624999999999998
20
-1.7772142857142859
10
-9.9999999999999964
20
-1.7772142857142859
10
-9.9999999999999964
20
-1.6522142857142863
10
-10.624999999999998
20
-1.6522142857142863
10
-10.624999999999998
20
-1.1428571428571446
10
-10.749999999999996
20
-1.1428571428571446
10
-10.749999999999996
20
0
10
-9.3906249999999982
20
0
10
-9.3906249999999982
20
0.1249999999999996
10
-8.0312499999999964
20
0.1249999999999996
10
-8.0312499999999964
20
0
10
-7.4007750984251945
20
0
10
-7.4007750984251945
20
-0.15403543307086978
10
-7.4499876968503909
20
-0.15403543307086975
10
-7.4499876968503909
20
-0.23277559055118424
10
-7.4007750984251919
20
-0.23277559055118424
10
-7.4007750984251919
20
-0.38681102362204856
10
-7.3023499015747984
20
-0.38681102362204856
10
-7.3023499015747984
20
-0.23277559055118424
10
-7.2531373031496038
20
-0.23277559055118424
10
-7.2531373031496038
20
-0.15403543307086978
10
-7.302349901574801
20
-0.15403543307086978
10
-7.302349901574801
20
0
10
-6.6718749999999991
20
0
10
-6.6718749999999991
20
0.1249999999999996
10
-5.3125
20
0.1249999999999996
10
-5.3125
20
0
10
-4.6820250984251954
20
-6.5564351847942307e-16
10
-4.6820250984251954
20
-0.15403543307086701
10
-4.7312376968503944
20
-0.15403543307086701
10
-4.7312376968503944
20
-0.23277559055118166
10
-4.6820250984251954
20
-0.23277559055118166
10
-4.6820250984251963
20
-0.38681102362204867
10
-4.5835999015748028
20
-0.38681102362204867
10
-4.583599901574801
20
-0.23277559055118166
10
-4.5343873031496074
20
-0.23277559055118166
10
-4.5343873031496074
20
-0.15403543307086701
10
-4.583599901574801
20
-0.15403543307086701
10
-4.583599901574801
20
-7.4998956652127158e-16
10
-3.9531249999999996
20
0
10
-3.9531249999999996
20
0.1249999999999996
10
-2.5937499999999991
20
0.1249999999999996
10
-2.5937499999999991
20
0
10
-1.9632750984251952
20
-1.3987061727561026e-15
10
-1.9632750984251952
20
-0.15403543307086853
10
-2.0124876968503904
20
-0.15403543307086856
10
-2.01248769685039
20
-0.2327755905511831
10
-1.9632750984251952
20
-0.2327755905511831
10
-1.9632750984251959
20
-0.38681102362204928
10
-1.8648499015748028
20
-0.38681102362204928
10
-1.8648499015748021
20
-0.23277559055118308
10
-1.8156373031496031
20
-0.23277559055118308
10
-1.8156373031496031
20
-0.15403543307086848
10
-1.8648499015748015
20
-0.1540354330708685
10
-1.8648499015748015
20
-1.3987061727561026e-15
10
-1.2343749999999989
20
0
10
-1.2343749999999989
20
0.1249999999999996
10
0.125000000000001
20
0.1249999999999996
10
0.125000000000001
20
-1.1428571428571446
10
6.9935308637805131e-16
20
-1.1428571428571446
10
6.9935308637805131e-16
20
-1.665073115860519
10
-0.15403543307086381
20
-1.665073115860519
10
-0.15403543307086381
20
-1.6158605174353222
10
-0.23277559055117883
20
-1.6158605174353222
10
-0.23277559055117883
20
-1.665073115860519
10
-0.3868110236220465
20
-1.665073115860519
10
-0.3868110236220465
20
-1.7634983127109127
10
-0.23277559055117883
20
-1.7634983127109127
10
-0.23277559055117883
20
-1.8127109111361095
10
-0.15403543307086381
20
-1.8127109111361095
10
-0.15403543307086381
20
-1.7634983127109127
10
6.9935308637805131e-16
20
-1.7634983127109127
10
6.9935308637805131e-16
20
-2.2857142857142869
10
0.125000000000001
20
-2.2857142857142869
10
0.125000000000001
20
-3.4285714285714297
10
6.9935308637805131e-16
20
-3.4285714285714297
10
6.9935308637805131e-16
20
-3.9507874015748028
10
-0.1540354330708659
20
-3.9507874015748028
10
-0.1540354330708659
20
-3.9015748031496069
10
-0.23277559055118058
20
-3.9015748031496069
10
-0.23277559055118058
20
-3.9507874015748037
10
-0.3868110236220465
20
-3.9507874015748037
10
-0.3868110236220465
20
-4.0492125984251972
10
-0.23277559055118058
20
-4.0492125984251972
10
-0.23277559055118058
20
-4.0984251968503944
10
-0.1540354330708659
20
-4.0984251968503944
0
LWPOLYLINE
5
101
100
AcDbEntity
8
0
100
AcDbPolyline
90
4
70
1
43
0.0
10
-10.100000322334409
20
-1.3000000414885873
10
-10.100000322334409
20
-0.50000001595714894
42
0.99999999999999989
10
-10.500000335100127
20
-0.50000001595714894
10
-10.500000335100127
20
-1.3000000414885873
42
0.99999999999999989
0
LWPOLYLINE
5
102
100
AcDbEntity
8
0
100
AcDbPolyline
90
4
70
1
43
0.0
10
-10.100000322334409
20
-7.5004285554714221
10
-10.100000322334409
20
-6.7004285299399839
42
0.99999999999999989
10
-10.500000335100127
20
-6.7004285299399839
10
-10.500000335100127
20
-7.5004285554714221
42
0.99999999999999989
0
CIRCLE
5
103
100
AcDbEntity
8
0
100
AcDbCircle
10
-1.5939772807687469
20
-7.1000000000000005
30
0
40
0.062992125984252023
0
CIRCLE
5
104
100
AcDbEntity
8
0
100
AcDbCircle
10
-7.1999999999999984
20
-7.0674238356337806
30
0
40
0.10000000000000052
0
CIRCLE
5
105
100
AcDbEntity
8
0
100
AcDbCircle
10
-7.1999999999999984
20
-3.2499999999999996
30
0
40
0.062499999999999098
0
CIRCLE
5
106
100
AcDbEntity
8
0
100
AcDbCircle
10
-1.2499999999999996
20
-1.2499999999999998
30
0
40
0.062499999999999972
0
CIRCLE
5
107
100
AcDbEntity
8
0
100
AcDbCircle
10
-7.1999999999999984
20
-5.4007571689671137
30
0
40
0.10000000000000052
0
CIRCLE
5
108
100
AcDbEntity
8
0
100
AcDbCircle
10
-3.2183867295876443
20
-5.1118110236220478
30
0
40
0.062992125984252023
0
CIRCLE
5
109
100
AcDbEntity
8
0
100
AcDbCircle
10
-3.4939772807687461
20
-7.1000000000000005
30
0
40
0.062992125984251315
0
CIRCLE
5
110
100
AcDbEntity
8
0
100
AcDbCircle
10
-5.1999999999999993
20
-7.0674238356337806
30
0
40
0.099999999999999811
0
CIRCLE
5
111
100
AcDbEntity
8
0
100
AcDbCircle
10
-7.1999999999999984
20
-1.2499999999999998
30
0
40
0.062500000000000486
0
CIRCLE
5
112
100
AcDbEntity
8
0
100
AcDbCircle
10
-1.2499999999999996
20
-3.2499999999999996
30
0
40
0.062499999999999972
0
CIRCLE
5
113
100
AcDbEntity
8
0
100
AcDbCircle
10
-5.1999999999999993
20
-5.4007571689671137
30
0
40
0.10000000000000052
0
CIRCLE
5
114
100
AcDbEntity
8
0
100
AcDbCircle
10
-2.1160245248632346
20
-5.1118110236220478
30
0
40
0.062992125984252023
0
ENDSEC
0
SECTION
2
OBJECTS
0
DICTIONARY
5
C
100
AcDbDictionary
3
ACAD_GROUP
350
D
3
ACAD_MLINESTYLE
350
17
0
DICTIONARY
5
D
100
AcDbDictionary
0
DICTIONARY
5
1A
330
C
100
AcDbDictionary
0
DICTIONARY
5
17
100
AcDbDictionary
0
ENDSEC
0
EOF
