0
SECTION
2
HEADER
9
$INSUNITS
70
1
9
$ACADVER
1
AC1014
9
$HANDSEED
5
FFFF
0
ENDSEC
0
SECTION
2
TABLES
0
TABLE
2
VPORT
5
8
100
AcDbSymbolTable
0
ENDTAB
0
TABLE
2
LTYPE
5
5
100
AcDbSymbolTable
0
LTYPE
5
14
100
AcDbSymbolTableRecord
100
AcDbLinetypeTableRecord
2
BYBLOCK
70
0
0
LTYPE
5
15
100
AcDbSymbolTableRecord
100
AcDbLinetypeTableRecord
2
BYLAYER
70
0
0
ENDTAB
0
TABLE
2
LAYER
5
2
100
AcDbSymbolTable
70
2
0
LAYER
5
50
100
AcDbSymbolTableRecord
100
AcDbLayerTableRecord
2
0
70
0
6
CONTINUOUS
0
ENDTAB
0
TABLE
2
STYLE
5
3
100
AcDbSymbolTable
70
1
0
STYLE
5
11
100
AcDbSymbolTableRecord
100
AcDbTextStyleTableRecord
2
STANDARD
70
0
0
ENDTAB
0
TABLE
2
VIEW
5
6
100
AcDbSymbolTable
70
0
0
ENDTAB
0
TABLE
2
UCS
5
7
100
AcDbSymbolTable
70
0
0
ENDTAB
0
TABLE
2
APPID
5
9
100
AcDbSymbolTable
70
2
0
APPID
5
12
100
AcDbSymbolTableRecord
100
AcDbRegAppTableRecord
2
ACAD
70
0
0
ENDTAB
0
TABLE
2
DIMSTYLE
5
A
100
AcDbSymbolTable
70
1
0
ENDTAB
0
TABLE
2
BLOCK_RECORD
5
1
100
AcDbSymbolTable
70
1
0
BLOCK_RECORD
5
1F
100
AcDbSymbolTableRecord
100
AcDbBlockTableRecord
2
*MODEL_SPACE
0
BLOCK_RECORD
5
1B
100
AcDbSymbolTableRecord
100
AcDbBlockTableRecord
2
*PAPER_SPACE
0
ENDTAB
0
ENDSEC
0
SECTION
2
BLOCKS
0
BLOCK
5
20
100
AcDbEntity
100
AcDbBlockBegin
2
*MODEL_SPACE
0
ENDBLK
5
21
100
AcDbEntity
100
AcDbBlockEnd
0
BLOCK
5
1C
100
AcDbEntity
100
AcDbBlockBegin
2
*PAPER_SPACE
0
ENDBLK
5
1D
100
AcDbEntity
100
AcDbBlockEnd
0
ENDSEC
0
SECTION
2
ENTITIES
0
LWPOLYLINE
5
100
100
AcDbEntity
8
0
100
AcDbPolyline
90
116
70
1
43
0.0
10
6.1482142857142827
20
1.5499999999999996
10
6.1482142857142827
20
1.6749999999999996
10
6.9464285714285694
20
1.6749999999999996
10
6.9464285714285694
20
1.5499999999999996
10
7.6954302587176588
20
1.5499999999999996
10
7.6954302587176588
20
1.3959645669291336
10
7.6462176602924625
20
1.3959645669291336
10
7.6462176602924625
20
1.3172244094488186
10
7.6954302587176588
20
1.3172244094488186
10
7.6954302587176588
20
1.1631889763779524
10
7.7938554555680524
20
1.1631889763779524
10
7.7938554555680524
20
1.3172244094488186
10
7.8430680539932496
20
1.3172244094488186
10
7.8430680539932496
20
1.3959645669291336
10
7.7938554555680524
20
1.3959645669291336
10
7.7938554555680524
20
1.5499999999999996
10
8.5428571428571409
20
1.5499999999999996
10
8.5428571428571409
20
1.6749999999999996
10
9.3410714285714267
20
1.6749999999999996
10
9.3410714285714267
20
1.5499999999999996
10
10.090073115860516
20
1.5499999999999996
10
10.090073115860516
20
1.3959645669291336
10
10.040860517435318
20
1.3959645669291336
10
10.040860517435318
20
1.3172244094488186
10
10.090073115860516
20
1.3172244094488186
10
10.090073115860516
20
1.1631889763779524
10
10.188498312710909
20
1.1631889763779524
10
10.188498312710909
20
1.3172244094488186
10
10.237710911136107
20
1.3172244094488186
10
10.237710911136107
20
1.3959645669291336
10
10.188498312710909
20
1.3959645669291336
10
10.188498312710909
20
1.5499999999999996
10
10.937499999999998
20
1.5499999999999996
10
10.937499999999998
20
1.6749999999999996
10
11.062499999999996
20
1.6749999999999998
10
11.062499999999996
20
1.1749999999999998
10
10.937499999999996
20
1.1749999999999998
10
10.937499999999996
20
0.97421259842519758
10
10.78346456692913
20
0.97421259842519758
10
10.78346456692913
20
1.023425196850394
10
10.704724409448815
20
1.023425196850394
10
10.704724409448815
20
0.97421259842519758
10
10.550688976377948
20
0.97421259842519758
10
10.550688976377948
20
0.87578740157480395
10
10.704724409448815
20
0.87578740157480395
10
10.704724409448815
20
0.82657480314960674
10
10.78346456692913
20
0.82657480314960674
10
10.78346456692913
20
0.87578740157480395
10
10.937499999999996
20
0.87578740157480395
10
10.937499999999996
20
0.67499999999999982
10
11.062499999999996
20
0.67499999999999982
10
11.062499999999996
20
0.17499999999999985
10
-0.36250000000000343
20
0.17499999999999985
10
-0.36250000000000343
20
0.67499999999999982
10
-0.23750000000000346
20
0.67499999999999982
10
-0.23750000000000346
20
0.87578740157480373
10
-0.083464566929137354
20
0.87578740157480373
10
-0.083464566929137354
20
0.82657480314960685
10
-0.0047244094488223818
20
0.82657480314960685
10
-0.0047244094488223766
20
0.87578740157480373
10
0.14931102362204374
20
0.87578740157480373
10
0.14931102362204374
20
0.97421259842519747
10
-0.0047244094488223818
20
0.97421259842519747
10
-0.0047244094488223766
20
1.0234251968503942
10
-0.083464566929137354
20
1.0234251968503942
10
-0.083464566929137354
20
0.97421259842519747
10
-0.23750000000000346
20
0.97421259842519747
10
-0.23750000000000346
20
1.1749999999999998
10
-0.36250000000000343
20
1.1749999999999998
10
-0.36250000000000343
20
1.6749999999999998
10
-0.23750000000000346
20
1.6749999999999996
10
-0.23750000000000351
20
1.5499999999999996
10
0.51150168728908529
20
1.5499999999999996
10
0.51150168728908529
20
1.3959645669291336
10
0.46228908886388848
20
1.3959645669291336
10
0.46228908886388848
20
1.3172244094488186
10
0.51150168728908529
20
1.3172244094488186
10
0.51150168728908529
20
1.1631889763779524
10
0.60992688413947904
20
1.1631889763779524
10
0.60992688413947904
20
1.3172244094488186
10
0.6591394825646758
20
1.3172244094488186
10
0.6591394825646758
20
1.3959645669291336
10
0.60992688413947904
20
1.3959645669291336
10
0.60992688413947904
20
1.5499999999999996
10
1.3589285714285677
20
1.5499999999999996
10
1.3589285714285677
20
1.6749999999999996
10
2.1571428571428539
20
1.6749999999999996
10
2.1571428571428539
20
1.5499999999999996
10
2.9061445444319425
20
1.5499999999999996
10
2.9061445444319425
20
1.3959645669291336
10
2.8569319460067457
20
1.3959645669291336
10
2.8569319460067457
20
1.3172244094488186
10
2.9061445444319425
20
1.3172244094488186
10
2.9061445444319425
20
1.1631889763779524
10
3.0045697412823364
20
1.1631889763779524
10
3.0045697412823364
20
1.3172244094488186
10
3.0537823397075332
20
1.3172244094488186
10
3.0537823397075332
20
1.3959645669291336
10
3.0045697412823364
20
1.3959645669291336
10
3.0045697412823364
20
1.5499999999999996
10
3.7535714285714255
20
1.5499999999999996
10
3.7535714285714255
20
1.6749999999999996
10
4.5517857142857121
20
1.6749999999999996
10
4.5517857142857121
20
1.5499999999999996
10
5.3007874015747998
20
1.5499999999999996
10
5.3007874015747998
20
1.3959645669291336
10
5.2515748031496026
20
1.3959645669291336
10
5.2515748031496026
20
1.3172244094488186
10
5.3007874015747998
20
1.3172244094488186
10
5.3007874015747998
20
1.1631889763779524
10
5.3992125984251933
20
1.1631889763779524
10
5.3992125984251933
20
1.3172244094488186
10
5.4484251968503896
20
1.3172244094488186
10
5.4484251968503896
20
1.3959645669291336
10
5.3992125984251933
20
1.3959645669291336
10
5.3992125984251933
20
1.5499999999999996
0
ENDSEC
0
SECTION
2
OBJECTS
0
DICTIONARY
5
C
100
AcDbDictionary
3
ACAD_GROUP
350
D
3
ACAD_MLINESTYLE
350
17
0
DICTIONARY
5
D
100
AcDbDictionary
0
DICTIONARY
5
1A
330
C
100
AcDbDictionary
0
DICTIONARY
5
17
100
AcDbDictionary
0
ENDSEC
0
EOF
